<svg width="149" height="25" viewBox="0 0 149 25" fill="none" xmlns="http://www.w3.org/2000/svg">
<path d="M90.2399 11.0632C89.8605 11.0632 89.5141 11.0054 89.2007 10.89C88.8873 10.7745 88.5766 10.582 88.2687 10.3126L88.5738 9.75176C88.8708 9.99369 89.1512 10.1696 89.4151 10.2796C89.679 10.3841 89.954 10.4363 90.2399 10.4363C90.6633 10.4363 90.9904 10.3511 91.2214 10.1806C91.4523 10.0047 91.5678 9.75726 91.5678 9.43834C91.5678 9.2184 91.4963 9.03695 91.3533 8.89399C91.2159 8.74553 91.0124 8.6438 90.743 8.58882L89.7945 8.40737C89.3161 8.31939 88.9697 8.15443 88.7553 7.9125C88.5408 7.66507 88.4336 7.37364 88.4336 7.03823C88.4336 6.73581 88.5024 6.46089 88.6398 6.21345C88.7773 5.96602 88.9862 5.76807 89.2667 5.61961C89.5471 5.46565 89.8962 5.38867 90.3141 5.38867C90.644 5.38867 90.9602 5.43816 91.2626 5.53713C91.565 5.63061 91.8537 5.79281 92.1286 6.02375L91.8235 6.5846C91.587 6.40865 91.3506 6.27119 91.1142 6.17221C90.8777 6.06774 90.6165 6.0155 90.3306 6.0155C89.9457 6.0155 89.6543 6.10073 89.4564 6.27119C89.2584 6.43614 89.1594 6.66158 89.1594 6.94751C89.1594 7.16745 89.2282 7.34065 89.3656 7.46712C89.5086 7.58809 89.7148 7.67606 89.9842 7.73105L90.9327 7.9125C91.4056 8.00048 91.7492 8.18193 91.9637 8.45685C92.1836 8.73178 92.2936 9.03695 92.2936 9.37236C92.2936 9.87273 92.1149 10.2796 91.7575 10.593C91.4056 10.9065 90.8997 11.0632 90.2399 11.0632Z" fill="white"/>
<path d="M95.9375 11.0632C95.3656 11.0632 94.8707 10.9422 94.4528 10.7003C94.035 10.4528 93.7133 10.1174 93.4879 9.69402C93.2624 9.26514 93.1497 8.77577 93.1497 8.22592C93.1497 7.67606 93.2624 7.18944 93.4879 6.76605C93.7133 6.33717 94.035 6.00176 94.4528 5.75982C94.8707 5.51239 95.3656 5.38867 95.9375 5.38867C96.3169 5.38867 96.6605 5.44366 96.9684 5.55363C97.2763 5.6581 97.5623 5.81481 97.8262 6.02375L97.5293 6.57636C97.2983 6.3949 97.0509 6.25744 96.787 6.16397C96.5285 6.06499 96.2454 6.0155 95.9375 6.0155C95.5141 6.0155 95.1484 6.10898 94.8405 6.29593C94.5326 6.47738 94.2934 6.73581 94.1229 7.07122C93.958 7.40114 93.8755 7.78603 93.8755 8.22592C93.8755 8.6658 93.958 9.05345 94.1229 9.38886C94.2934 9.71877 94.5326 9.9772 94.8405 10.1641C95.1484 10.3456 95.5141 10.4363 95.9375 10.4363C96.2454 10.4363 96.5285 10.3896 96.787 10.2961C97.0509 10.1971 97.2983 10.0569 97.5293 9.87548L97.8262 10.4281C97.5623 10.637 97.2763 10.7965 96.9684 10.9065C96.6605 11.0109 96.3169 11.0632 95.9375 11.0632Z" fill="white"/>
<path d="M98.8822 10.9807V5.47115H99.5915V10.9807H98.8822Z" fill="white"/>
<path d="M100.952 10.9807V5.47115H104.713V6.08149H101.662V7.84652H104.466V8.44036H101.662V10.3703H104.713V10.9807H100.952Z" fill="white"/>
<path d="M105.841 10.9807V5.47115H106.633L109.718 9.97445V5.47115H110.427V10.9807H109.635L106.551 6.47738V10.9807H105.841Z" fill="white"/>
<path d="M113.204 10.9807V6.09798H111.472V5.47115H115.637V6.09798H113.914V10.9807H113.204Z" fill="white"/>
<path d="M116.691 10.9807V5.47115H117.4V10.9807H116.691Z" fill="white"/>
<path d="M118.761 10.9807V5.47115H122.522V6.08149H119.47V7.84652H122.274V8.44036H119.47V10.9807H118.761Z" fill="white"/>
<path d="M123.569 10.9807V5.47115H124.279V10.9807H123.569Z" fill="white"/>
<path d="M128.18 11.0632C127.608 11.0632 127.113 10.9422 126.695 10.7003C126.277 10.4528 125.955 10.1174 125.73 9.69402C125.505 9.26514 125.392 8.77577 125.392 8.22592C125.392 7.67606 125.505 7.18944 125.73 6.76605C125.955 6.33717 126.277 6.00176 126.695 5.75982C127.113 5.51239 127.608 5.38867 128.18 5.38867C128.559 5.38867 128.903 5.44366 129.211 5.55363C129.518 5.6581 129.804 5.81481 130.068 6.02375L129.771 6.57636C129.54 6.3949 129.293 6.25744 129.029 6.16397C128.771 6.06499 128.488 6.0155 128.18 6.0155C127.756 6.0155 127.391 6.10898 127.083 6.29593C126.775 6.47738 126.536 6.73581 126.365 7.07122C126.2 7.40114 126.118 7.78603 126.118 8.22592C126.118 8.6658 126.2 9.05345 126.365 9.38886C126.536 9.71877 126.775 9.9772 127.083 10.1641C127.391 10.3456 127.756 10.4363 128.18 10.4363C128.488 10.4363 128.771 10.3896 129.029 10.2961C129.293 10.1971 129.54 10.0569 129.771 9.87548L130.068 10.4281C129.804 10.637 129.518 10.7965 129.211 10.9065C128.903 11.0109 128.559 11.0632 128.18 11.0632Z" fill="white"/>
<path d="M89.943 18.6969V13.8142H88.2109V13.1874H92.3761V13.8142H90.6523V18.6969H89.943Z" fill="white"/>
<path d="M93.4293 18.6969V13.1874H97.1903V13.7977H94.1387V15.5628H96.9429V16.1566H94.1387V18.0866H97.1903V18.6969H93.4293Z" fill="white"/>
<path d="M100.859 18.7794C100.287 18.7794 99.792 18.6584 99.3741 18.4165C98.9563 18.1691 98.6346 17.8337 98.4091 17.4103C98.1837 16.9814 98.071 16.492 98.071 15.9422C98.071 15.3923 98.1837 14.9057 98.4091 14.4823C98.6346 14.0534 98.9563 13.718 99.3741 13.4761C99.792 13.2286 100.287 13.1049 100.859 13.1049C101.238 13.1049 101.582 13.1599 101.89 13.2699C102.198 13.3743 102.484 13.531 102.747 13.74L102.451 14.2926C102.22 14.1111 101.972 13.9737 101.708 13.8802C101.45 13.7812 101.167 13.7317 100.859 13.7317C100.435 13.7317 100.07 13.8252 99.7618 14.0122C99.4539 14.1936 99.2147 14.4521 99.0442 14.7875C98.8793 15.1174 98.7968 15.5023 98.7968 15.9422C98.7968 16.382 98.8793 16.7697 99.0442 17.1051C99.2147 17.435 99.4539 17.6934 99.7618 17.8804C100.07 18.0618 100.435 18.1526 100.859 18.1526C101.167 18.1526 101.45 18.1058 101.708 18.0124C101.972 17.9134 102.22 17.7732 102.451 17.5917L102.747 18.1443C102.484 18.3533 102.198 18.5127 101.89 18.6227C101.582 18.7272 101.238 18.7794 100.859 18.7794Z" fill="white"/>
<path d="M103.804 18.6969V13.1874H104.513V15.5463H107.68V13.1874H108.389V18.6969H107.68V16.1731H104.513V18.6969H103.804Z" fill="white"/>
<path d="M109.74 18.6969V13.1874H110.531L113.616 17.6907V13.1874H114.325V18.6969H113.534L110.449 14.1936V18.6969H109.74Z" fill="white"/>
<path d="M118.216 18.7794C117.644 18.7794 117.149 18.6584 116.732 18.4165C116.314 18.1691 115.992 17.8337 115.767 17.4103C115.541 16.9814 115.428 16.492 115.428 15.9422C115.428 15.3923 115.541 14.9057 115.767 14.4823C115.992 14.0534 116.314 13.718 116.732 13.4761C117.149 13.2286 117.644 13.1049 118.216 13.1049C118.794 13.1049 119.288 13.2286 119.701 13.4761C120.119 13.718 120.44 14.0534 120.666 14.4823C120.891 14.9057 121.004 15.3923 121.004 15.9422C121.004 16.492 120.891 16.9814 120.666 17.4103C120.44 17.8337 120.119 18.1691 119.701 18.4165C119.288 18.6584 118.794 18.7794 118.216 18.7794ZM118.216 18.1526C118.64 18.1526 119.005 18.0618 119.313 17.8804C119.621 17.6934 119.857 17.435 120.022 17.1051C120.193 16.7697 120.278 16.382 120.278 15.9422C120.278 15.5023 120.193 15.1174 120.022 14.7875C119.857 14.4521 119.621 14.1936 119.313 14.0122C119.005 13.8252 118.64 13.7317 118.216 13.7317C117.793 13.7317 117.427 13.8252 117.119 14.0122C116.811 14.1936 116.572 14.4521 116.402 14.7875C116.237 15.1174 116.154 15.5023 116.154 15.9422C116.154 16.382 116.237 16.7697 116.402 17.1051C116.572 17.435 116.811 17.6934 117.119 17.8804C117.427 18.0618 117.793 18.1526 118.216 18.1526Z" fill="white"/>
<path d="M122.111 18.6969V13.1874H122.821V18.0701H125.46V18.6969H122.111Z" fill="white"/>
<path d="M128.341 18.7794C127.769 18.7794 127.274 18.6584 126.856 18.4165C126.438 18.1691 126.117 17.8337 125.891 17.4103C125.666 16.9814 125.553 16.492 125.553 15.9422C125.553 15.3923 125.666 14.9057 125.891 14.4823C126.117 14.0534 126.438 13.718 126.856 13.4761C127.274 13.2286 127.769 13.1049 128.341 13.1049C128.918 13.1049 129.413 13.2286 129.825 13.4761C130.243 13.718 130.565 14.0534 130.79 14.4823C131.016 14.9057 131.128 15.3923 131.128 15.9422C131.128 16.492 131.016 16.9814 130.79 17.4103C130.565 17.8337 130.243 18.1691 129.825 18.4165C129.413 18.6584 128.918 18.7794 128.341 18.7794ZM128.341 18.1526C128.764 18.1526 129.13 18.0618 129.438 17.8804C129.746 17.6934 129.982 17.435 130.147 17.1051C130.317 16.7697 130.403 16.382 130.403 15.9422C130.403 15.5023 130.317 15.1174 130.147 14.7875C129.982 14.4521 129.746 14.1936 129.438 14.0122C129.13 13.8252 128.764 13.7317 128.341 13.7317C127.917 13.7317 127.552 13.8252 127.244 14.0122C126.936 14.1936 126.697 14.4521 126.526 14.7875C126.361 15.1174 126.279 15.5023 126.279 15.9422C126.279 16.382 126.361 16.7697 126.526 17.1051C126.697 17.435 126.936 17.6934 127.244 17.8804C127.552 18.0618 127.917 18.1526 128.341 18.1526Z" fill="white"/>
<path d="M134.776 18.7794C134.204 18.7794 133.709 18.6584 133.292 18.4165C132.874 18.1691 132.552 17.8337 132.327 17.4103C132.101 16.9814 131.988 16.492 131.988 15.9422C131.988 15.3923 132.101 14.9057 132.327 14.4823C132.552 14.0534 132.874 13.718 133.292 13.4761C133.709 13.2286 134.204 13.1049 134.776 13.1049C135.167 13.1049 135.535 13.1599 135.881 13.2699C136.228 13.3798 136.533 13.5393 136.797 13.7482L136.508 14.2926C136.261 14.1166 135.991 13.9792 135.7 13.8802C135.409 13.7812 135.101 13.7317 134.776 13.7317C134.353 13.7317 133.987 13.8252 133.679 14.0122C133.371 14.1936 133.132 14.4521 132.962 14.7875C132.797 15.1174 132.714 15.5023 132.714 15.9422C132.714 16.382 132.797 16.7697 132.962 17.1051C133.132 17.435 133.371 17.6934 133.679 17.8804C133.987 18.0618 134.353 18.1526 134.776 18.1526C135.123 18.1526 135.428 18.0921 135.692 17.9711C135.961 17.8501 136.184 17.6742 136.36 17.4433V16.3298H134.694V15.703H137.069V17.6742C136.827 18.0206 136.514 18.2928 136.129 18.4907C135.744 18.6832 135.293 18.7794 134.776 18.7794Z" fill="white"/>
<path d="M138.261 18.6969V13.1874H138.97V18.6969H138.261Z" fill="white"/>
<path d="M140.331 18.6969V13.1874H144.092V13.7977H141.04V15.5628H143.844V16.1566H141.04V18.0866H144.092V18.6969H140.331Z" fill="white"/>
<path d="M146.944 18.7794C146.564 18.7794 146.218 18.7217 145.904 18.6062C145.591 18.4907 145.28 18.2983 144.972 18.0288L145.277 17.468C145.574 17.7099 145.855 17.8859 146.119 17.9959C146.383 18.1003 146.658 18.1526 146.944 18.1526C147.367 18.1526 147.694 18.0673 147.925 17.8969C148.156 17.7209 148.271 17.4735 148.271 17.1546C148.271 16.9346 148.2 16.7532 148.057 16.6102C147.92 16.4618 147.716 16.36 147.447 16.3051L146.498 16.1236C146.02 16.0356 145.673 15.8707 145.459 15.6287C145.244 15.3813 145.137 15.0899 145.137 14.7545C145.137 14.4521 145.206 14.1771 145.343 13.9297C145.481 13.6823 145.69 13.4843 145.97 13.3359C146.251 13.1819 146.6 13.1049 147.018 13.1049C147.348 13.1049 147.664 13.1544 147.966 13.2534C148.269 13.3468 148.557 13.5091 148.832 13.74L148.527 14.3008C148.291 14.1249 148.054 13.9874 147.818 13.8885C147.581 13.784 147.32 13.7317 147.034 13.7317C146.649 13.7317 146.358 13.817 146.16 13.9874C145.962 14.1524 145.863 14.3778 145.863 14.6637C145.863 14.8837 145.932 15.0569 146.069 15.1834C146.212 15.3043 146.418 15.3923 146.688 15.4473L147.636 15.6287C148.109 15.7167 148.453 15.8982 148.667 16.1731C148.887 16.448 148.997 16.7532 148.997 17.0886C148.997 17.589 148.819 17.9959 148.461 18.3093C148.109 18.6227 147.603 18.7794 146.944 18.7794Z" fill="white"/>
<path d="M0.315351 18.8711C0.227754 18.8711 0.148916 18.8449 0.0788377 18.7927C0.0262792 18.7231 0 18.6448 0 18.5578V0.913537C0 0.826534 0.0262792 0.756931 0.0788377 0.704728C0.148916 0.635125 0.227754 0.600324 0.315351 0.600324H2.73304C2.82064 0.600324 2.89072 0.635125 2.94328 0.704728C3.01336 0.756931 3.04839 0.826534 3.04839 0.913537V16.1304C3.04839 16.2174 3.09219 16.2609 3.17979 16.2609H8.96274C9.05034 16.2609 9.12041 16.2957 9.17297 16.3654C9.24305 16.4176 9.27809 16.4872 9.27809 16.5742V18.5578C9.27809 18.6448 9.24305 18.7231 9.17297 18.7927C9.12041 18.8449 9.05034 18.8711 8.96274 18.8711H0.315351Z" fill="white"/>
<path d="M15.8685 19.0799C14.4844 19.0799 13.2931 18.7318 12.2945 18.0358C11.3134 17.3398 10.6214 16.3741 10.2184 15.1386C9.92062 14.199 9.7717 13.2071 9.7717 12.1631C9.7717 11.0494 9.91186 10.0576 10.1922 9.18757C10.5951 7.96952 11.2959 7.02118 12.2945 6.34255C13.2931 5.66393 14.4932 5.32461 15.8948 5.32461C17.2262 5.32461 18.3738 5.66393 19.3374 6.34255C20.3184 7.02118 21.0105 7.96082 21.4134 9.16147C21.7288 9.9967 21.8864 10.9885 21.8864 12.137C21.8864 13.2332 21.7375 14.2251 21.4397 15.1125C21.0367 16.3479 20.3447 17.3224 19.3636 18.0358C18.3825 18.7318 17.2175 19.0799 15.8685 19.0799ZM15.8685 16.4698C16.5167 16.4698 17.0686 16.287 17.5241 15.9216C17.9971 15.5562 18.3387 15.0429 18.549 14.3817C18.7242 13.8075 18.8118 13.0766 18.8118 12.1892C18.8118 11.2495 18.7242 10.5187 18.549 9.9967C18.3563 9.33547 18.0234 8.83085 17.5504 8.48284C17.0773 8.11742 16.4992 7.93472 15.8159 7.93472C15.1677 7.93472 14.6071 8.11742 14.1341 8.48284C13.661 8.83085 13.3194 9.33547 13.1092 9.9967C12.934 10.6057 12.8464 11.3366 12.8464 12.1892C12.8464 13.0418 12.934 13.7726 13.1092 14.3817C13.3019 15.0429 13.6348 15.5562 14.1078 15.9216C14.5983 16.287 15.1852 16.4698 15.8685 16.4698Z" fill="white"/>
<path d="M31.9818 5.84663C31.9818 5.75963 32.0081 5.69003 32.0607 5.63782C32.1308 5.56822 32.2096 5.53342 32.2972 5.53342H34.7149C34.8025 5.53342 34.8726 5.56822 34.9251 5.63782C34.9952 5.69003 35.0302 5.75963 35.0302 5.84663V17.9836C35.0302 20.1587 34.3995 21.7074 33.1381 22.6296C31.8942 23.5692 30.2562 24.0391 28.2239 24.0391C27.6808 24.0391 27.1465 24.013 26.6209 23.9608C26.4282 23.9434 26.3318 23.8302 26.3318 23.6214L26.4106 21.4812C26.4106 21.2897 26.5333 21.194 26.7785 21.194C27.2866 21.2462 27.7421 21.2723 28.1451 21.2723C29.459 21.2723 30.4226 21.0113 31.0358 20.4893C31.6665 19.9847 31.9818 19.1234 31.9818 17.9053V17.6965C31.9818 17.6443 31.9643 17.6182 31.9293 17.6182C31.8942 17.6008 31.8592 17.6095 31.8242 17.6443C31.1059 18.4099 30.0897 18.7927 28.7758 18.7927C27.637 18.7927 26.5946 18.5056 25.6485 17.9314C24.7025 17.3572 24.0455 16.4785 23.6776 15.2952C23.4498 14.4774 23.336 13.4246 23.336 12.137C23.336 10.6927 23.4761 9.58778 23.7564 8.82215C24.1068 7.76071 24.7112 6.91678 25.5697 6.29035C26.4282 5.64652 27.4355 5.32461 28.5918 5.32461C29.9759 5.32461 31.0533 5.72483 31.8242 6.52526C31.8592 6.57746 31.8942 6.59486 31.9293 6.57746C31.9643 6.56006 31.9818 6.52526 31.9818 6.47306V5.84663ZM31.7979 14.4339C31.868 14.1729 31.9118 13.8945 31.9293 13.5986C31.9643 13.2854 31.9818 12.7895 31.9818 12.1109C31.9818 11.4497 31.9643 10.9798 31.9293 10.7014C31.9118 10.4056 31.8592 10.1185 31.7716 9.84009C31.6314 9.26587 31.3424 8.80475 30.9044 8.45674C30.4839 8.10872 29.9408 7.93472 29.2751 7.93472C28.6444 7.93472 28.11 8.10872 27.672 8.45674C27.234 8.80475 26.9187 9.26587 26.726 9.84009C26.5157 10.3273 26.4106 11.0929 26.4106 12.137C26.4106 13.2158 26.4982 13.9728 26.6734 14.4078C26.8486 14.9646 27.164 15.4257 27.6195 15.7911C28.0925 16.1391 28.6531 16.3132 29.3014 16.3132C29.9846 16.3132 30.5365 16.1391 30.9569 15.7911C31.3774 15.4431 31.6577 14.9907 31.7979 14.4339Z" fill="white"/>
<path d="M38.639 3.70635C38.0959 3.70635 37.6491 3.53234 37.2987 3.18433C36.9483 2.83631 36.7731 2.3926 36.7731 1.85317C36.7731 1.31375 36.9483 0.870035 37.2987 0.522022C37.6491 0.174007 38.0959 0 38.639 0C39.1821 0 39.6288 0.174007 39.9792 0.522022C40.3296 0.870035 40.5048 1.31375 40.5048 1.85317C40.5048 2.3926 40.3296 2.83631 39.9792 3.18433C39.6288 3.53234 39.1821 3.70635 38.639 3.70635ZM37.3776 18.8711C37.29 18.8711 37.2111 18.8449 37.141 18.7927C37.0885 18.7231 37.0622 18.6448 37.0622 18.5578V5.82053C37.0622 5.73353 37.0885 5.66393 37.141 5.61172C37.2111 5.54212 37.29 5.50732 37.3776 5.50732H39.7952C39.8828 5.50732 39.9529 5.54212 40.0055 5.61172C40.0756 5.66393 40.1106 5.73353 40.1106 5.82053V18.5578C40.1106 18.6448 40.0756 18.7231 40.0055 18.7927C39.9529 18.8449 39.8828 18.8711 39.7952 18.8711H37.3776Z" fill="white"/>
<path d="M41.8419 18.8711C41.7193 18.8711 41.6317 18.8363 41.5792 18.7666C41.5441 18.6796 41.5616 18.5839 41.6317 18.4795L45.889 12.2675C45.924 12.2153 45.924 12.1631 45.889 12.1109L41.6317 5.92494C41.5967 5.85533 41.5792 5.79443 41.5792 5.74223C41.5792 5.60302 41.6668 5.53342 41.8419 5.53342H44.4173C44.575 5.53342 44.6976 5.60302 44.7852 5.74223L47.5183 9.76179C47.5533 9.79659 47.5883 9.81399 47.6234 9.81399C47.6584 9.81399 47.6847 9.79659 47.7022 9.76179L50.4353 5.74223C50.5229 5.60302 50.6455 5.53342 50.8032 5.53342H53.5625C53.6851 5.53342 53.764 5.57692 53.799 5.66393C53.8516 5.73353 53.8428 5.82053 53.7727 5.92494L49.5155 12.1109C49.498 12.1631 49.498 12.2153 49.5155 12.2675L53.7727 18.4795C53.8078 18.5491 53.8253 18.61 53.8253 18.6622C53.8253 18.8014 53.7377 18.8711 53.5625 18.8711H50.9871C50.8295 18.8711 50.7068 18.8014 50.6192 18.6622L47.8862 14.6427C47.8687 14.6079 47.8424 14.5905 47.8073 14.5905C47.7723 14.5905 47.7373 14.6079 47.7022 14.6427L44.9692 18.6622C44.8816 18.8014 44.7589 18.8711 44.6013 18.8711H41.8419Z" fill="white"/>
<path d="M64.8178 6.66933C64.9199 6.52279 65.175 6.52279 65.2771 6.66933L73.5444 18.5392C73.6464 18.6858 73.5189 18.869 73.3147 18.869H56.7801C56.576 18.869 56.4484 18.6858 56.5505 18.5392L64.8178 6.66933Z" fill="white"/>
<path d="M67.1881 5.5349C66.984 5.5349 66.8564 5.71807 66.9585 5.86462L75.2258 17.7345C75.3279 17.8811 75.583 17.8811 75.6851 17.7345L83.9524 5.86461C84.0544 5.71807 83.9269 5.5349 83.7227 5.5349L67.1881 5.5349Z" fill="white"/>
</svg>
