<svg width="30" height="30" viewBox="0 0 30 30" fill="none" xmlns="http://www.w3.org/2000/svg">
<path d="M0 2.64706C0 1.18513 1.18513 0 2.64706 0H27.3529C28.8149 0 30 1.18513 30 2.64706V27.3529C30 28.8149 28.8149 30 27.3529 30H2.64706C1.18513 30 0 28.8149 0 27.3529V2.64706Z" fill="#0D1117"/>
<path d="M24.5365 16.3112C24.3865 16.5706 24.1447 16.7559 23.8571 16.8335C23.5676 16.9112 23.2659 16.8706 23.0065 16.7206L21.6494 15.9371C21.3053 15.7394 20.8941 15.7394 20.5518 15.9371C20.2076 16.1347 20.0029 16.4912 20.0029 16.8882V22.5265C20.0029 22.8318 19.8829 23.1176 19.6624 23.3312C19.4435 23.5447 19.1647 23.6594 18.8471 23.6471C18.2488 23.6294 17.7618 23.1018 17.7618 22.4718V20.6241C17.7618 20.2271 17.5571 19.8724 17.2129 19.6729C16.8688 19.4753 16.4594 19.4735 16.1153 19.6729L10.6835 22.8088C10.4188 22.9624 10.11 22.9994 9.81706 22.9165C9.52412 22.8335 9.28059 22.6376 9.13588 22.3694C8.85176 21.8418 9.06529 21.1571 9.61059 20.8412L11.1953 19.9271C11.5394 19.7294 11.7441 19.3729 11.7441 18.9759C11.7441 18.5788 11.5394 18.2241 11.1953 18.0247L6.03176 15.0441C5.76706 14.8906 5.58 14.6435 5.50588 14.3471C5.43177 14.0506 5.47941 13.7435 5.64 13.4824C5.95588 12.9724 6.65471 12.8153 7.20177 13.1294L8.50941 13.8847C8.85353 14.0824 9.26294 14.0824 9.60706 13.8847C9.95118 13.6871 10.1559 13.3306 10.1559 12.9335V7.29706C10.1559 6.67941 10.6588 6.17647 11.2765 6.17647C11.8941 6.17647 12.3971 6.67941 12.3971 7.29706V9.20118C12.3971 9.59824 12.6018 9.95294 12.9459 10.1524C13.29 10.35 13.6994 10.35 14.0435 10.1524L19.4753 7.01647C19.74 6.86294 20.0488 6.82588 20.3418 6.90882C20.6365 6.99177 20.8782 7.18765 21.0229 7.45588C21.3071 7.98353 21.0935 8.66824 20.5482 8.98412L18.9635 9.89824C18.6194 10.0959 18.4147 10.4524 18.4147 10.8494C18.4147 11.2465 18.6194 11.6012 18.9635 11.8006L24.1253 14.7812C24.3847 14.9312 24.57 15.1729 24.6476 15.4606C24.7253 15.7482 24.6847 16.0518 24.5347 16.3112H24.5365Z" fill="#A0EC06"/>
</svg>
