<svg width="30" height="30" viewBox="0 0 30 30" fill="none" xmlns="http://www.w3.org/2000/svg">
<path d="M0 2.64706C0 1.18513 1.18513 0 2.64706 0H27.3529C28.8149 0 30 1.18513 30 2.64706V27.3529C30 28.8149 28.8149 30 27.3529 30H2.64706C1.18513 30 0 28.8149 0 27.3529V2.64706Z" fill="#0D1117"/>
<path fill-rule="evenodd" clip-rule="evenodd" d="M22.4188 16.3571L20.1582 15.0512L22.4188 13.7453C23.64 13.0235 24.0847 11.4688 23.3629 10.2459C22.6412 9.02294 21.0865 8.63471 19.8635 9.30176L17.5871 10.6165V8.02412C17.5871 6.58059 16.4206 5.46882 15.0318 5.46882C13.6429 5.46882 12.4765 6.57882 12.4765 8.02412V10.6165L10.2 9.30176C9.79941 9.08471 9.36529 8.97882 8.93471 8.97882C8.05059 8.97882 7.18765 9.42353 6.70059 10.2459C5.97882 11.4671 6.42353 13.0235 7.64471 13.7453L9.90529 15.0512L7.64471 16.3571C6.82235 16.8424 6.35294 17.7035 6.35294 18.5894C6.35294 19.02 6.46412 19.4559 6.70059 19.8565C7.42235 21.0776 8.97706 21.5224 10.2 20.8006L12.4765 19.4859V22.1329C12.4765 22.8265 12.7676 23.4653 13.2335 23.9312C13.6994 24.3971 14.3382 24.6882 15.0318 24.6882C16.4206 24.6882 17.5871 23.5218 17.5871 22.1329V19.4859L19.8635 20.8006C21.0847 21.5224 22.6412 21.0776 23.3629 19.8565C24.0847 18.6353 23.64 17.0788 22.4188 16.3571ZM18.2524 10.5794C19.3624 9.96882 20.7512 10.3571 21.3618 11.4124C21.9724 12.4676 21.5841 13.8565 20.5288 14.4671L19.8371 14.8659L17.5853 13.5671V10.9659L18.2524 10.5794ZM12.7553 10.0253C12.7553 8.74765 13.8106 7.74882 15.0318 7.74882C16.2529 7.74882 17.3082 8.74765 17.3082 10.0253V10.7771L15.0318 12.0918L12.7553 10.7771V10.0253ZM9.53294 14.4671C8.47765 13.8565 8.08941 12.4676 8.7 11.4124C9.11294 10.6976 9.88412 10.2882 10.6659 10.2882C11.0382 10.2882 11.4141 10.3818 11.7547 10.5794L12.4765 10.9959V13.5671L10.2229 14.8676L9.53294 14.4671ZM11.7547 19.5212C10.6994 20.1318 9.31059 19.7982 8.7 18.6882C8.50235 18.3476 8.40882 17.9718 8.40882 17.5994C8.40882 16.8176 8.81824 16.0482 9.53294 15.6335L10.2229 15.2329L12.4765 16.5335V19.1047L11.7547 19.5212ZM17.3082 20.1335C17.3082 21.3547 16.2529 22.3553 15.0318 22.3553C14.4212 22.3553 13.8512 22.1047 13.4347 21.7024C13.0182 21.3 12.7535 20.7441 12.7535 20.1335V19.3253L15.03 18.0106L17.3065 19.3253V20.1335H17.3082ZM21.3635 18.6882C20.7529 19.7982 19.3641 20.1318 18.2541 19.5212L17.5871 19.1347V16.5335L19.8388 15.2347L20.5306 15.6335C21.5859 16.2441 21.9741 17.6329 21.3635 18.6882Z" fill="#73B6FF"/>
</svg>
