<svg width="30" height="30" viewBox="0 0 30 30" fill="none" xmlns="http://www.w3.org/2000/svg">
<path d="M0 2.64706C0 1.18513 1.18513 0 2.64706 0H27.3529C28.8149 0 30 1.18513 30 2.64706V27.3529C30 28.8149 28.8149 30 27.3529 30H2.64706C1.18513 30 0 28.8149 0 27.3529V2.64706Z" fill="#0D1117"/>
<path d="M8.79 9.50471C8.78294 9.42353 8.79 9.22588 8.74941 9.03529C8.62235 8.42118 8.27471 7.70647 8.84294 7.24412C9.54529 6.67235 10.3676 6.19588 11.2112 5.87471C11.5359 5.75118 12.1412 6.06882 12.4888 6.34765C14.4088 7.88294 15.5859 7.92706 17.3788 6.34412C18.0229 5.77412 18.6371 5.65941 19.3676 6.07235C19.7506 6.28765 20.1371 6.49765 20.5112 6.72529C21.2188 7.15765 21.4518 7.75412 21.2771 8.59235C20.7953 10.9094 21.4394 12.0335 23.7212 12.8012C24.5524 13.08 24.9176 13.5724 24.9176 14.4035C24.9176 14.8429 24.9176 15.2824 24.9141 15.7218C24.9106 16.5706 24.5188 17.0876 23.6682 17.2729C22.7753 17.4671 22.0376 17.9206 21.5506 18.72C21.0688 19.5088 20.9612 20.3418 21.1747 21.2524C21.4853 22.5741 21.3671 22.8071 20.22 23.5271C19.9306 23.7088 19.6218 23.8571 19.3253 24.0247C18.6459 24.4076 18.0653 24.3176 17.4565 23.8006C15.4765 22.1206 14.4441 22.1171 12.4782 23.7688C11.8835 24.2682 11.3082 24.4429 10.6147 24.0388C10.1524 23.7688 9.67235 23.5235 9.23118 23.2218C8.65588 22.8282 8.47235 22.3076 8.60647 21.5771C9.07235 19.0429 8.53412 18.1235 6.11471 17.2571C5.37353 16.9888 5.00294 16.5141 4.95706 15.7535C4.93588 15.4129 4.93765 15.0688 4.94647 14.7282C4.98176 13.4188 5.14412 13.2071 6.43412 12.7535C8.03647 12.1906 8.80765 11.1635 8.78824 9.50471H8.79ZM19.5441 10.5371C19.56 10.44 19.5688 10.3429 19.5935 10.2494C19.8335 9.33 19.23 8.92765 18.5682 8.54294C17.9241 8.16706 17.3912 8.08235 16.7276 8.64529C15.4165 9.75882 14.5447 9.73941 13.1118 8.57647C12.3424 7.95176 11.7776 8.30647 11.1318 8.67176C10.4841 9.03882 10.1188 9.46235 10.2953 10.3182C10.6253 11.9224 10.1365 12.8382 8.58353 13.3624C7.66765 13.6712 7.54588 14.2341 7.54588 15.0247C7.54588 15.81 7.65 16.3906 8.56235 16.7065C10.1382 17.2518 10.6288 18.1359 10.2988 19.7329C10.1241 20.5818 10.4647 21.0212 11.1141 21.3935C11.7565 21.7624 12.3194 22.1276 13.0941 21.51C14.5924 20.3118 15.2771 20.3682 16.8459 21.4818C17.1335 21.6865 17.5624 21.8753 17.8818 21.8206C19.0782 21.6176 19.6535 20.7776 19.5476 19.5547C19.4135 18.0159 19.8565 17.2729 21.2488 16.7012C22.26 16.2847 22.3959 16.0694 22.3888 14.9753C22.3835 14.1794 22.1771 13.6447 21.2771 13.3518C19.8229 12.8788 19.4153 12.0759 19.5441 10.5406V10.5371Z" fill="#B48DFF"/>
</svg>
