<svg width="30" height="30" viewBox="0 0 30 30" fill="none" xmlns="http://www.w3.org/2000/svg">
<path d="M0 2.64706C0 1.18513 1.18513 0 2.64706 0H27.3529C28.8149 0 30 1.18513 30 2.64706V27.3529C30 28.8149 28.8149 30 27.3529 30H2.64706C1.18513 30 0 28.8149 0 27.3529V2.64706Z" fill="#0D1117"/>
<path d="M11.9488 5.48294C12.6935 5.38412 13.7841 6.58588 14.1335 7.19471C16.4876 11.2888 12.5647 16.0306 8.12294 14.4741C7.38353 14.2165 5.54647 12.9741 5.47235 12.1659C5.40882 11.4741 6.88412 9.15882 7.38176 8.56765C8.24824 7.53882 10.6218 5.65941 11.9488 5.48294Z" fill="#B48DFF"/>
<path d="M17.8853 5.47941C18.6441 5.34 20.8906 6.77471 21.5259 7.30059C22.6076 8.19529 23.8518 9.80471 24.3565 11.1159C24.75 12.1359 24.8718 12.1712 24.15 13.0253C20.61 17.2165 13.7206 13.3341 15.6918 7.96412C15.9741 7.19471 17.0435 5.63471 17.8853 5.47941Z" fill="#B48DFF"/>
<path d="M19.4435 15.3918C20.7053 15.2188 21.8718 15.3865 22.9712 16.0341C23.5059 16.35 24.7429 17.4388 24.6847 18.0759C24.5841 19.1771 22.7947 21.6406 21.9565 22.4276C21.36 22.9888 18.6071 24.81 17.8853 24.66C17.6012 24.6 16.6447 23.6859 16.4329 23.4176C14.1618 20.5447 15.7853 15.8912 19.4435 15.3918Z" fill="#B48DFF"/>
<path d="M8.83235 15.39C14.52 14.5006 17.0718 21.6865 12.3 24.66C10.1894 24.1853 8.15824 22.6571 6.91235 20.9171C6.50294 20.3453 5.39647 18.5029 5.49706 17.8606C5.65588 16.8494 7.86706 15.5418 8.83059 15.39H8.83235Z" fill="#B48DFF"/>
</svg>
