<svg width="30" height="30" viewBox="0 0 30 30" fill="none" xmlns="http://www.w3.org/2000/svg">
<path d="M0 2.64706C0 1.18513 1.18513 0 2.64706 0H27.3529C28.8149 0 30 1.18513 30 2.64706V27.3529C30 28.8149 28.8149 30 27.3529 30H2.64706C1.18513 30 0 28.8149 0 27.3529V2.64706Z" fill="#0D1117"/>
<path d="M22.4224 21.0724L19.2776 17.9276C18.5559 17.2059 19.0676 15.9724 20.0876 15.9724H24.5629V14.0629H20.0876C19.0676 14.0629 18.5559 12.8294 19.2776 12.1076L22.4418 8.94353L21.0918 7.59176L17.0559 11.6276C15.93 12.7535 14.1053 12.7535 12.9794 11.6276L8.93824 7.58824L7.58824 8.93824L10.7576 12.1076C11.4794 12.8294 10.9676 14.0629 9.94765 14.0629H5.47059V15.9724H9.94588C10.9659 15.9724 11.4776 17.2059 10.7559 17.9276L7.59 21.0935L8.94 22.4435L12.9759 18.4076C14.1018 17.2818 15.9265 17.2818 17.0524 18.4076L21.0688 22.4241L22.4188 21.0741L22.4224 21.0724Z" fill="#FF6333"/>
</svg>
