<svg width="30" height="30" viewBox="0 0 30 30" fill="none" xmlns="http://www.w3.org/2000/svg">
<path d="M0 2.64706C0 1.18513 1.18513 0 2.64706 0H27.3529C28.8149 0 30 1.18513 30 2.64706V27.3529C30 28.8149 28.8149 30 27.3529 30H2.64706C1.18513 30 0 28.8149 0 27.3529V2.64706Z" fill="#0D1117"/>
<path d="M22.6553 9.91235C22.8882 9.27 23.3082 8.60824 23.6171 7.99941C23.8429 7.55647 24.4447 6.50471 23.5465 6.63882C22.9182 6.73412 21.7712 7.23177 20.9506 7.22118C19.7082 7.26706 18.7676 5.91529 17.8182 5.49C17.43 5.37353 17.3594 5.81647 17.3065 6.13765C17.1247 7.65176 17.0824 9.46059 15.1147 9.53824C12.9388 9.58412 12.9124 7.71176 12.7059 6.06882C12.6459 5.79 12.6141 5.48118 12.3141 5.46882C12.1888 5.47765 12.0653 5.54118 11.9524 5.61176C11.3382 6 10.4612 6.93529 9.61059 7.15235C8.36647 7.57941 5.95588 5.99824 6 6.93529C6.04765 7.44176 6.49235 8.13529 6.76941 8.67706C8.05588 10.8459 7.51235 11.5041 6.41824 13.5459C6.17294 14.0206 5.59412 15.1006 6.52059 14.9082C7.51412 14.7212 8.66471 14.0947 9.69529 14.4194C10.7488 14.7688 11.4124 16.0218 11.5482 17.0947C11.6435 17.8465 11.3841 18.6053 10.98 19.2229C10.62 19.8265 10.0535 20.3559 9.76412 20.9576C9.57706 21.3635 10.0747 21.4729 10.3782 21.5153C10.9429 21.6088 11.79 21.6388 12.4165 21.8594C13.4982 22.1841 13.9641 23.3982 14.5024 24.2576C14.8535 24.8135 15.0988 24.84 15.4588 24.2771C16.1471 23.1618 16.5565 21.9706 18.0424 21.7376C18.6265 21.6141 19.4294 21.5841 19.8371 21.48C20.1247 21.42 20.3735 21.2576 20.2006 20.9347C20.0365 20.6012 19.7594 20.2994 19.5053 19.9606C18.93 19.2035 18.3565 18.3265 18.4218 17.3241C18.4659 16.4859 18.8629 15.6 19.4506 14.9824C20.9418 13.2724 23.9629 15.7182 24.0141 14.6347C23.9947 14.2976 23.8306 13.9994 23.6541 13.6394C23.3276 12.9759 22.8512 12.2418 22.62 11.5359C22.4488 11.0082 22.4629 10.44 22.6518 9.91765V9.91059L22.6553 9.91235ZM17.4776 13.5018C17.4229 14.5747 16.7382 15.9724 15.7747 16.5318C14.1582 17.3947 12.8965 15.3776 12.6053 13.9835C12.48 13.3835 12.5276 12.7147 12.9794 12.2735C13.5724 11.7018 14.5376 11.5818 15.3476 11.6312C16.4982 11.7212 17.5429 12.2312 17.4776 13.4912V13.5018Z" fill="#00EB8F"/>
</svg>
