<svg width="30" height="30" viewBox="0 0 30 30" fill="none" xmlns="http://www.w3.org/2000/svg">
<path d="M0 2.64706C0 1.18513 1.18513 0 2.64706 0H27.3529C28.8149 0 30 1.18513 30 2.64706V27.3529C30 28.8149 28.8149 30 27.3529 30H2.64706C1.18513 30 0 28.8149 0 27.3529V2.64706Z" fill="#0D1117"/>
<path d="M22.7012 13.5565L22.7929 13.6429C23.0135 13.8812 23.2165 14.1388 23.4194 14.4176C23.9894 15.2365 24.3582 16.1629 24.1924 17.13V17.1494C24.1924 17.1724 24.1553 17.1935 24.1553 17.2165V17.2782L24.1376 17.3012C24.1376 17.3453 24.1376 17.3647 24.12 17.3876C23.8994 18.2259 23.3647 18.8276 22.6659 19.2759V19.26V19.2829V19.2776C23.0347 20.0065 23.1812 20.7759 22.9606 21.5682C22.5371 23.1847 20.8076 23.9806 19.3165 24.3247C17.1635 24.8206 14.6965 24.6053 12.5435 24.0865C10.3535 23.4406 7.97824 22.2988 6.34059 20.6824L6.10059 20.4247L6.72706 19.8847L8.93647 17.6665C8.51294 17.3841 8.10882 17.0629 7.74 16.6959C7.61118 16.5882 7.48235 16.4594 7.37118 16.3288L7.26 16.2441C7.03941 16.0059 6.83647 15.7465 6.63353 15.4676C6.04235 14.6541 5.71059 13.7241 5.85882 12.7571L5.87647 12.7376V12.6724C5.87647 12.6494 5.89412 12.6282 5.89412 12.6088V12.5859C5.89412 12.5629 5.93118 12.5241 5.93118 12.5012C6.13412 11.6824 6.70412 11.0576 7.38529 10.6271C7.03588 9.89471 6.87 9.12 7.09059 8.32235C7.51412 6.70588 9.24529 5.90824 10.7541 5.56412C12.9088 5.08941 15.3565 5.28529 17.5094 5.80235C19.6994 6.44647 22.0747 7.59 23.7124 9.22588L23.9524 9.46412L23.3259 10.0024L21.0988 12.2224C21.54 12.5241 21.9459 12.8471 22.3129 13.1912C22.4418 13.3006 22.5706 13.4294 22.6994 13.5582L22.7012 13.5565ZM8.63824 20.43C9.94588 21.3335 11.5641 22.0024 12.9829 22.4312C14.7494 22.8424 16.8476 23.0771 18.6529 22.7771C19.5547 22.6059 21.0265 22.1753 21.3035 21.1394C21.4147 20.73 21.3212 20.3418 21.1376 19.9553C20.9171 20.0418 20.6965 20.0841 20.4935 20.1494C18.3406 20.6241 15.8541 20.4318 13.7206 19.9112C13.1135 19.74 12.4871 19.5247 11.8976 19.2653C11.4 19.0712 10.9218 18.8576 10.4435 18.6212L8.64 20.43H8.63824ZM7.64471 12.7818V12.8047C7.62706 12.8188 7.62706 12.8347 7.62706 12.8488C7.62706 12.8718 7.60941 12.8929 7.60941 12.8929V12.9547C7.57235 12.9547 7.57235 12.9776 7.57235 12.9776V13.0412H7.55471V13.0853C7.53706 13.1929 7.53706 13.3235 7.55471 13.4294C7.57235 13.7735 7.72059 14.1194 7.92353 14.4194L7.94118 14.4635C8.29059 15.0459 8.84294 15.6053 9.65294 16.1418C10.9782 17.07 12.6159 17.7582 14.1265 18.21C14.55 18.3176 14.9912 18.4253 15.4341 18.51C16.8882 18.7482 18.4341 18.8347 19.8141 18.5753C19.8688 18.5753 19.9429 18.5524 19.9976 18.5524C19.9059 18.4659 19.8141 18.3812 19.7029 18.2929C18.3035 17.1741 16.4453 16.3553 14.7512 15.8594C12.6335 15.1253 10.7206 14.0506 8.98941 12.6265C8.78647 12.4324 8.56588 12.1959 8.34529 11.9806C8.05059 12.1747 7.79294 12.4341 7.64647 12.7782L7.64471 12.7818ZM21.4306 9.46588C20.0876 8.56235 18.4853 7.89353 17.0506 7.46118C15.2841 7.05176 13.2212 6.81529 11.4176 7.13824C10.4788 7.29 9.04235 7.72059 8.76706 8.75471C8.65588 9.16588 8.74941 9.57353 8.91353 9.94059C9.13412 9.85235 9.33706 9.81 9.55765 9.74471C11.7106 9.27 14.1971 9.46412 16.35 9.98118C16.9394 10.1541 17.5465 10.3676 18.1535 10.6271C18.6512 10.8212 19.1471 11.0365 19.59 11.2959L21.4306 9.46412V9.46588ZM22.1118 15.4553C21.78 14.8729 21.1906 14.3135 20.4 13.7735C19.0747 12.8259 17.4371 12.1376 15.9265 11.6841C15.5029 11.5747 15.0424 11.4688 14.6012 11.3806C13.1647 11.1459 11.6188 11.0806 10.2565 11.3188C10.1824 11.3188 10.11 11.3418 10.0359 11.3418C10.1471 11.4282 10.2565 11.5147 10.3482 11.5994C11.7282 12.72 13.5882 13.5371 15.2806 14.0347C17.3982 14.7671 19.3112 15.8665 21.0424 17.2676C21.2629 17.4794 21.4835 17.6912 21.7041 17.9047C21.6865 17.9065 21.6865 17.91 21.6865 17.9118H21.7041V17.9047C22.0165 17.7106 22.2741 17.4582 22.3853 17.1159H22.4224V17.0541H22.44V17.01C22.4576 16.9871 22.4576 16.9659 22.4576 16.9659V16.9218L22.4753 16.8794V16.8353C22.4929 16.7047 22.4929 16.5759 22.4929 16.4682C22.4559 16.1224 22.3271 15.7782 22.1241 15.4765L22.1065 15.4571V15.4606L22.1118 15.4553Z" fill="#B48DFF"/>
</svg>
