<svg width="1680" height="1630" viewBox="0 0 1680 1630" fill="none" xmlns="http://www.w3.org/2000/svg">
<path d="M1218.28 0.286133C1210.9 28.0023 1186.67 51.6991 1151.71 72.4141C1116.61 93.2161 1069.76 111.549 1015.53 128.139C907.049 161.324 767.937 187.852 631.609 212.99C495.101 238.162 361.439 261.934 263.299 289.62C214.19 303.475 174.394 318.2 147.683 334.355C120.676 350.689 108.903 367.277 111.321 384.528C112.512 393.024 118.064 401.576 128.651 410.17C139.221 418.749 154.342 426.979 173.624 434.864C212.17 450.627 266.305 464.602 331.15 477.448C460.791 503.13 632.066 524.084 804.443 546.05C976.678 567.997 1150 590.954 1283.31 620.639C1349.94 635.476 1406.85 652.052 1448.72 671.145C1469.65 680.691 1487.03 690.956 1500.01 702.093C1512.99 713.227 1521.86 725.472 1525.22 738.997C1532.12 766.783 1513.23 791.328 1480.24 812.95C1446.88 834.81 1396.95 855.206 1336.45 874.628C1215.33 913.502 1050.13 948.975 885.959 984.241C721.602 1019.55 558.282 1054.64 440.38 1092.8C381.369 1111.89 334.195 1131.61 304.015 1152.26C288.923 1162.59 278.461 1172.9 272.764 1183.12C267.179 1193.14 266.111 1203.16 269.913 1213.59C277.968 1235.71 298.943 1255.06 331.018 1272.06C362.986 1289 405.227 1303.2 454.54 1315.4C553.151 1339.79 678.989 1355.94 805.097 1370.39C931.039 1384.82 1057.28 1397.55 1156.17 1415.13C1205.61 1423.93 1248.47 1433.97 1281.17 1446.15C1297.52 1452.23 1311.49 1458.91 1322.52 1466.33C1333.54 1473.74 1341.89 1482.07 1346.62 1491.57C1351.23 1500.86 1352.78 1510.2 1351.37 1519.46C1349.96 1528.66 1345.68 1537.45 1339.17 1545.78C1326.25 1562.33 1304.04 1577.76 1275.52 1592.15C1249.2 1605.45 1217.04 1618.08 1180.88 1630H1147.62C1195.82 1615.45 1238.16 1599.81 1271.01 1583.23C1299.1 1569.04 1319.73 1554.42 1331.29 1539.62C1337.03 1532.28 1340.4 1525.06 1341.48 1517.95C1342.56 1510.9 1341.44 1503.63 1337.66 1496.02C1333.98 1488.62 1327.12 1481.48 1316.94 1474.63C1306.79 1467.8 1293.6 1461.44 1277.68 1455.52C1245.82 1443.66 1203.66 1433.74 1154.42 1424.98C1055.93 1407.47 930.165 1394.78 803.959 1380.32C677.918 1365.88 551.464 1349.68 452.139 1325.11C402.484 1312.82 359.345 1298.39 326.335 1280.89C293.43 1263.46 269.828 1242.58 260.517 1217.02C255.636 1203.62 257.155 1190.59 264.028 1178.25C270.79 1166.12 282.657 1154.76 298.367 1144.01C329.792 1122.51 378.114 1102.43 437.301 1083.28C555.796 1044.94 719.69 1009.73 883.858 974.465C1048.21 939.16 1212.85 903.795 1333.39 865.106C1393.71 845.747 1442.57 825.679 1474.75 804.587C1507.3 783.257 1520.72 762.359 1515.52 741.408C1512.82 730.565 1505.52 719.992 1493.5 709.684C1481.49 699.378 1465.03 689.572 1444.57 680.243C1403.65 661.584 1347.54 645.187 1281.14 630.399C1148.36 600.834 975.519 577.93 803.18 555.97C630.983 534.027 459.275 513.024 329.208 487.258C264.201 474.38 209.3 460.257 169.839 444.12C150.118 436.056 133.992 427.385 122.349 417.934C110.724 408.497 103.097 397.889 101.418 385.917C98.0975 362.233 114.899 342.496 142.508 325.798C170.412 308.922 211.273 293.907 260.584 279.996C359.287 252.151 493.532 228.283 629.796 203.156C766.241 177.996 904.771 151.564 1012.6 118.576C1066.53 102.079 1112.51 84.0209 1146.62 63.8105C1179.77 44.1633 1200.87 22.9772 1207.95 0H1217.2L1218.28 0.286133Z" fill="url(#paint0_linear_580_49)"/>
<defs>
<linearGradient id="paint0_linear_580_49" x1="813.818" y1="0" x2="813.818" y2="1630" gradientUnits="userSpaceOnUse">
<stop offset="0.254185" stop-color="#A0EC06"/>
<stop offset="0.371987" stop-color="#50FFFF"/>
<stop offset="0.686558" stop-color="#9D7CDF"/>
<stop offset="0.894977" stop-color="#FF6333"/>
</linearGradient>
</defs>
</svg>
