<svg width="1680" height="1630" viewBox="0 0 1680 1630" fill="none" xmlns="http://www.w3.org/2000/svg">
<rect width="1680" height="1111.8" fill="url(#paint0_linear_580_44)"/>
<path d="M1210.16 0C1202.65 24.3073 1180.55 46.0982 1147.16 65.8828C1112.68 86.3152 1066.37 104.476 1012.33 121.008C904.259 154.07 765.511 180.537 629.109 205.689C492.754 230.833 358.728 254.665 260.236 282.451C211 296.341 170.539 311.247 143.082 327.853C115.699 344.414 100.783 362.97 103.766 384.242C105.261 394.911 112.11 404.748 123.346 413.868C134.586 422.992 150.335 431.498 169.892 439.495C209.009 455.492 263.623 469.559 328.57 482.425C458.477 508.16 630.022 529.145 802.287 551.096C974.588 573.051 1147.61 595.975 1280.58 625.585C1347.08 640.391 1403.49 656.855 1444.76 675.677C1465.4 685.087 1482.2 695.065 1494.58 705.683C1506.96 716.301 1514.84 727.5 1517.79 739.35C1523.63 762.864 1508.16 785.129 1475.44 806.568C1442.82 827.948 1393.56 848.139 1333.17 867.522C1212.42 906.281 1047.57 941.686 883.28 976.977C719.041 1012.26 555.362 1047.42 437.089 1085.7C377.968 1104.83 330.077 1124.77 299.119 1145.95C283.641 1156.54 272.3 1167.51 265.938 1178.92C259.548 1190.39 258.198 1202.29 262.674 1214.58C271.514 1238.85 294.132 1259.15 326.725 1276.42C359.344 1293.71 402.146 1308.06 451.673 1320.31C550.73 1344.82 676.953 1361 803.02 1375.44C929.127 1389.89 1055.07 1402.59 1153.71 1420.13C1203.02 1428.9 1245.45 1438.87 1277.62 1450.85C1293.7 1456.84 1307.19 1463.31 1317.67 1470.36C1328.16 1477.42 1335.58 1485.01 1339.65 1493.2C1343.75 1501.44 1345.03 1509.49 1343.82 1517.36C1342.62 1525.26 1338.9 1533.06 1332.88 1540.78C1320.81 1556.23 1299.59 1571.16 1271.34 1585.42C1240.08 1601.2 1200.37 1616.1 1155.31 1630H0V0H1210.16ZM1680 1630H1163.71C1205.72 1616.75 1242.84 1602.61 1272.46 1587.65C1300.82 1573.33 1322.44 1558.21 1334.85 1542.32C1341.07 1534.35 1345.01 1526.16 1346.29 1517.74C1347.58 1509.31 1346.19 1500.74 1341.89 1492.08C1337.56 1483.37 1329.76 1475.49 1319.07 1468.29C1308.36 1461.09 1294.68 1454.53 1278.49 1448.51C1246.11 1436.45 1203.51 1426.45 1154.14 1417.67C1055.41 1400.11 929.345 1387.4 803.304 1372.96C677.221 1358.52 551.152 1342.35 452.273 1317.88C402.832 1305.65 360.255 1291.36 327.896 1274.22C295.51 1257.05 273.549 1237.13 265.023 1213.72C260.817 1202.18 262.054 1191.03 268.122 1180.14C274.218 1169.2 285.207 1158.5 300.53 1148.02C331.177 1127.05 378.781 1107.19 437.858 1088.07C555.983 1049.85 719.518 1014.71 883.805 979.421C1048.05 944.14 1213.04 908.708 1333.93 869.903C1394.37 850.505 1443.89 830.232 1476.81 808.66C1509.64 787.148 1526.48 763.97 1520.21 738.747C1517.1 726.228 1508.83 714.61 1496.21 703.785C1483.58 692.96 1466.55 682.867 1445.8 673.402C1404.28 654.473 1347.68 637.963 1281.13 623.145C1148.02 593.504 974.878 570.569 802.604 548.616C630.293 526.659 458.856 505.686 329.056 479.973C264.149 467.115 209.727 453.084 170.838 437.181C151.391 429.228 135.894 420.833 124.922 411.927C113.945 403.017 107.615 393.694 106.241 383.895C103.485 364.231 117.144 346.462 144.376 329.992C171.535 313.566 211.73 298.732 260.915 284.856C359.266 257.11 493.146 233.304 629.563 208.148C765.935 183.002 904.828 156.51 1013.07 123.398C1067.18 106.844 1113.7 88.6144 1148.44 68.0342C1182.32 47.9555 1205.2 25.5104 1212.77 0H1680V1630Z" fill="#0D1117"/>
<defs>
<linearGradient id="paint0_linear_580_44" x1="840" y1="0" x2="840" y2="1024.89" gradientUnits="userSpaceOnUse">
<stop offset="0.0480769" stop-color="#0D1117"/>
<stop offset="1" stop-color="#0D1117" stop-opacity="0"/>
</linearGradient>
</defs>
</svg>
