<svg width="30" height="30" viewBox="0 0 30 30" fill="none" xmlns="http://www.w3.org/2000/svg">
<path d="M0 2.64706C0 1.18513 1.18513 0 2.64706 0H27.3529C28.8149 0 30 1.18513 30 2.64706V27.3529C30 28.8149 28.8149 30 27.3529 30H2.64706C1.18513 30 0 28.8149 0 27.3529V2.64706Z" fill="#0D1117"/>
<path fill-rule="evenodd" clip-rule="evenodd" d="M5.82353 13.0094V10.65C7.60941 10.65 9.04765 9.21176 9.04765 7.41176H11.4071C11.4071 10.5106 8.91 13.0094 5.82353 13.0094Z" fill="#FF6333"/>
<path fill-rule="evenodd" clip-rule="evenodd" d="M18.4835 7.41176H20.8429C20.8429 9.21176 22.2935 10.65 24.0812 10.65V13.0094C20.9965 13.0094 18.4853 10.5106 18.4853 7.41176H18.4835Z" fill="#FF6333"/>
<path fill-rule="evenodd" clip-rule="evenodd" d="M14.9524 19.3588C12.4835 21.2435 9.41118 22.3871 6.06176 22.4435H5.82353V20.0841C8.67 20.0841 11.3082 19.1488 13.4153 17.5571C13.9871 17.0118 14.49 16.4118 14.9506 15.7853C15.3988 16.4118 15.9141 17.0118 16.4718 17.5571C18.5929 19.1471 21.2312 20.0841 24.0776 20.0841V22.4276L23.8271 22.4418C20.4918 22.3853 17.4194 21.24 14.9506 19.3571L14.9524 19.3588Z" fill="#FF6333"/>
<path fill-rule="evenodd" clip-rule="evenodd" d="M16.6694 14.5871C16.0571 13.9571 15.5241 13.2318 15.0918 12.4659C15.0371 12.3812 14.9929 12.2982 14.9524 12.2135C14.9118 12.2982 14.8535 12.3812 14.8129 12.4659C13.0535 15.6053 9.67765 17.7265 5.82353 17.7265V15.3671C10.2071 15.3671 13.7665 11.8094 13.7665 7.41353H16.1259C16.1259 9.21176 16.7259 10.86 17.7159 12.1853C19.1665 14.1265 21.4835 15.3671 24.0812 15.3671V17.7265C21.1782 17.7265 18.54 16.5247 16.6694 14.5871Z" fill="#FF6333"/>
</svg>
