<svg width="30" height="30" viewBox="0 0 30 30" fill="none" xmlns="http://www.w3.org/2000/svg">
<path d="M0 1.76471C0 0.790086 0.790086 0 1.76471 0H28.2353C29.2099 0 30 0.790086 30 1.76471V28.2353C30 29.2099 29.2099 30 28.2353 30H1.76471C0.790086 30 0 29.2099 0 28.2353V1.76471Z" fill="black"/>
<path d="M21.3459 11.7371H18.6776C18.3829 11.7371 18.1447 11.4988 18.1447 11.2041V8.53588C18.1447 6.76765 16.71 5.33294 14.9418 5.33294C13.1735 5.33294 11.7388 6.76765 11.7388 8.53588V11.2041C11.7388 11.4988 11.5006 11.7371 11.2059 11.7371H8.53765C6.76765 11.7371 5.33294 13.17 5.33294 14.94C5.33294 16.71 6.76765 18.1429 8.53588 18.1429H11.2041C11.4988 18.1429 11.7371 18.3812 11.7371 18.6759V21.3441C11.7371 23.1124 13.1718 24.5471 14.94 24.5471C16.7082 24.5471 18.1429 23.1124 18.1429 21.3441V18.6759C18.1429 18.3812 18.3812 18.1429 18.6759 18.1429H21.3441C23.1124 18.1429 24.5471 16.7082 24.5471 14.94C24.5471 13.1718 23.1124 11.7371 21.3441 11.7371H21.3459ZM21.3459 15.4729H18.6776C16.9094 15.4729 15.4747 16.9076 15.4747 18.6759V21.3441C15.4747 21.6388 15.2365 21.8771 14.9418 21.8771C14.6471 21.8771 14.4088 21.6388 14.4088 21.3441V18.6759C14.4088 16.9076 12.9741 15.4729 11.2059 15.4729H8.53765C8.24294 15.4729 8.00471 15.2347 8.00471 14.94C8.00471 14.6453 8.24294 14.4071 8.53765 14.4071H11.2059C12.9741 14.4071 14.4088 12.9724 14.4088 11.2041V8.53588C14.4088 8.24118 14.6471 8.00294 14.9418 8.00294C15.2365 8.00294 15.4747 8.24118 15.4747 8.53588V11.2041C15.4747 12.9724 16.9094 14.4071 18.6776 14.4071H21.3459C21.6406 14.4071 21.8788 14.6453 21.8788 14.94C21.8788 15.2347 21.6406 15.4729 21.3459 15.4729Z" fill="#B48DFF"/>
</svg>
