<svg width="30" height="30" viewBox="0 0 30 30" fill="none" xmlns="http://www.w3.org/2000/svg">
<path d="M0 3C0 1.34315 1.34315 0 3 0H27C28.6569 0 30 1.34315 30 3V27C30 28.6569 28.6569 30 27 30H3C1.34315 30 0 28.6569 0 27V3Z" fill="#0D1117"/>
<path d="M23 12.817L20.9663 9.32658C20.3346 9.68771 17.6947 11.6411 16.0717 13.2288C16.6478 11.0397 17.0329 7.79254 17.0329 7.07178H12.9686C12.9686 7.79254 13.3537 11.0442 13.9298 13.2288C12.3068 11.6396 9.6624 9.68621 9.03516 9.32658L7 12.817C7.63176 13.1781 10.6567 14.4749 12.8558 15.0718C10.6567 15.6732 7.63176 16.9655 7 17.3266L9.03366 20.817C9.66541 20.4558 12.3053 18.5025 13.9283 16.9147C13.3522 19.1039 12.9671 22.351 12.9671 23.0718H17.0314C17.0314 22.351 16.6463 19.0994 16.0702 16.9147C17.6932 18.504 20.3376 20.4573 20.9648 20.817L22.9985 17.3266C22.3667 16.9655 19.3418 15.6687 17.1427 15.0718C19.3418 14.4704 22.3667 13.1781 22.9985 12.817H23Z" fill="#FF6333"/>
</svg>
