<svg width="30" height="30" viewBox="0 0 30 30" fill="none" xmlns="http://www.w3.org/2000/svg">
<path d="M0 3C0 1.34315 1.34315 0 3 0H27C28.6569 0 30 1.34315 30 3V27C30 28.6569 28.6569 30 27 30H3C1.34315 30 0 28.6569 0 27V3Z" fill="#0D1117"/>
<path d="M15.0013 6.66133L16.2543 11.2165L19.945 8.26803L18.2816 12.6893L23.0013 12.4725L19.0558 15.0717L23.0013 17.671L18.2816 17.4541L19.945 21.8755L16.2543 18.9269L15.0013 23.4821L13.7482 18.9269L10.0575 21.8755L11.7209 17.4541L7.00125 17.671L10.9467 15.0717L7.00271 12.4725L11.7224 12.6893L10.0589 8.26803L13.7497 11.2165L15.0013 6.66133Z" fill="#B48DFF"/>
</svg>
