<svg width="30" height="30" viewBox="0 0 30 30" fill="none" xmlns="http://www.w3.org/2000/svg">
<path d="M0 1.76471C0 0.790086 0.790086 0 1.76471 0H28.2353C29.2099 0 30 0.790086 30 1.76471V28.2353C30 29.2099 29.2099 30 28.2353 30H1.76471C0.790086 30 0 29.2099 0 28.2353V1.76471Z" fill="black"/>
<path d="M20.7759 8.42647H24.1676V5.71235H20.3453L14.94 11.1194L9.53471 5.71235H5.71235V8.42647H9.10412C10.8282 8.42647 12.2259 9.82412 12.2259 11.5482V18.3318C12.2259 20.0559 10.8282 21.4535 9.10412 21.4535H5.71235V24.1676H9.53471L14.94 18.7624L20.3453 24.1676H24.1676V21.4535H20.7759C19.0518 21.4535 17.6541 20.0559 17.6541 18.3318V11.5482C17.6541 9.82412 19.0518 8.42647 20.7759 8.42647Z" fill="#50FFFF"/>
</svg>
