<svg width="30" height="30" viewBox="0 0 30 30" fill="none" xmlns="http://www.w3.org/2000/svg">
<path d="M0 1.76471C0 0.790086 0.790086 0 1.76471 0H28.2353C29.2099 0 30 0.790086 30 1.76471V28.2353C30 29.2099 29.2099 30 28.2353 30H1.76471C0.790086 30 0 29.2099 0 28.2353V1.76471Z" fill="black"/>
<path d="M18.2947 16.3597C18.2453 16.4762 24.5488 15.9274 24.5488 15.9274C24.5153 16.2521 24.4676 16.5715 24.4024 16.8856C24.3371 17.1997 24.2576 17.5085 24.1641 17.8103C24.1641 17.8103 17.5624 17.4715 17.4776 17.5544C17.3929 17.6374 23.4318 19.5397 23.4318 19.5397C23.2835 19.8132 23.1212 20.0779 22.9482 20.3356C22.7753 20.5915 22.5882 20.8403 22.3924 21.0785C22.3924 21.0785 16.4153 18.2726 16.3076 18.3168C16.2 18.3609 21.0829 22.3862 21.0829 22.3862C20.8447 22.5821 20.5959 22.7674 20.34 22.9421C20.0824 23.115 19.8176 23.2774 19.5441 23.4256C19.5441 23.4256 15.0547 18.585 14.9365 18.585C14.8182 18.585 17.8129 24.1562 17.8129 24.1562C17.5112 24.2497 17.2024 24.3291 16.8882 24.3944C16.5741 24.4579 16.2547 24.5074 15.93 24.5409C15.93 24.5409 13.6376 18.345 13.5212 18.2956C13.4047 18.2462 13.9553 24.5409 13.9553 24.5409C13.6306 24.5074 13.3112 24.4597 12.9971 24.3944C12.6829 24.3309 12.3741 24.2515 12.0724 24.1562C12.0724 24.1562 12.4112 17.565 12.3282 17.4785C12.2453 17.3938 10.3394 23.4256 10.3394 23.4256C10.0659 23.2774 9.79941 23.115 9.54353 22.9421C9.28588 22.7691 9.03882 22.5838 8.80059 22.3862C8.80059 22.3862 11.61 16.4162 11.5676 16.3085C11.5235 16.2009 7.49294 21.0785 7.49294 21.0785C7.29529 20.8403 7.11 20.5932 6.93706 20.3356C6.76412 20.0797 6.60176 19.8132 6.45353 19.5397C6.45353 19.5397 11.3012 15.0574 11.3012 14.9391C11.3012 14.8209 5.71588 17.8085 5.71588 17.8085C5.62235 17.5068 5.54294 17.1979 5.47765 16.8838C5.41412 16.5697 5.3647 16.2503 5.33118 15.9256C5.33118 15.9256 11.5359 13.635 11.5853 13.5203C11.6347 13.4056 5.33118 13.9526 5.33118 13.9526C5.3647 13.6279 5.41235 13.3085 5.47765 12.9944C5.54118 12.6803 5.62235 12.3715 5.71588 12.0697C5.71588 12.0697 12.3176 12.4085 12.4024 12.3256C12.4871 12.2426 6.44823 10.3403 6.44823 10.3403C6.59647 10.0668 6.75882 9.80206 6.93176 9.54441C7.1047 9.28853 7.29176 9.03971 7.48765 8.80147C7.48765 8.80147 13.4647 11.6074 13.5724 11.5632C13.68 11.5191 8.79706 7.49382 8.79706 7.49382C9.03529 7.29794 9.28412 7.11265 9.54 6.93794C9.79765 6.765 10.0624 6.60265 10.3359 6.45441C10.3359 6.45441 14.8253 11.295 14.9435 11.295C15.0618 11.295 12.0671 5.72382 12.0671 5.72382C12.3688 5.6303 12.6776 5.55088 12.9918 5.48559C13.3059 5.42206 13.6253 5.37265 13.95 5.33912C13.95 5.33912 16.2424 11.535 16.3588 11.5844C16.4753 11.6338 15.9265 5.34441 15.9265 5.34441C16.2512 5.37794 16.5706 5.42559 16.8847 5.49088C17.1988 5.55441 17.5076 5.63382 17.8094 5.72912C17.8094 5.72912 17.4706 12.3203 17.5535 12.4068C17.6365 12.4932 19.5424 6.45971 19.5424 6.45971C19.8159 6.60794 20.0824 6.7703 20.3382 6.94324C20.5959 7.11618 20.8429 7.30147 21.0812 7.49912C21.0812 7.49912 18.2718 13.4691 18.3141 13.5768C18.3565 13.6844 22.3888 8.80677 22.3888 8.80677C22.5865 9.045 22.7718 9.29206 22.9447 9.54971C23.1176 9.80559 23.28 10.0721 23.4282 10.3456C23.4282 10.3456 18.5806 14.8279 18.5806 14.9462C18.5806 15.0644 24.1606 12.075 24.1606 12.075C24.2541 12.3768 24.3335 12.6856 24.3988 12.9997C24.4624 13.3138 24.5118 13.6332 24.5453 13.9579C24.5453 13.9579 18.3406 16.2485 18.2912 16.3632L18.2947 16.3597Z" fill="#FF6333"/>
</svg>
