<svg width="30" height="30" viewBox="0 0 30 30" fill="none" xmlns="http://www.w3.org/2000/svg">
<path d="M0 1.76471C0 0.790086 0.790086 0 1.76471 0H28.2353C29.2099 0 30 0.790086 30 1.76471V28.2353C30 29.2099 29.2099 30 28.2353 30H1.76471C0.790086 30 0 29.2099 0 28.2353V1.76471Z" fill="black"/>
<path d="M24.4094 14.3082V15.5718C24.4094 16.2688 23.8447 16.8335 23.1476 16.8335H21.8841C21.1871 16.8335 20.6224 17.4 20.6224 18.0971V19.3588C20.6224 20.0576 20.0559 20.6224 19.3588 20.6224H18.0971C17.4 20.6224 16.8335 21.1871 16.8335 21.8841V23.1476C16.8335 23.8447 16.2688 24.4094 15.5718 24.4094H14.3082C13.6112 24.4094 13.0465 23.8447 13.0465 23.1476V21.8841C13.0465 21.1871 12.48 20.6224 11.7829 20.6224H10.5212C9.82412 20.6224 9.25765 20.0576 9.25765 19.3588V18.0971C9.25765 17.4 8.69294 16.8335 7.99588 16.8335H6.73235C6.03529 16.8335 5.47059 16.2688 5.47059 15.5718V14.3082C5.47059 13.6112 6.03529 13.0465 6.73235 13.0465H7.99588C8.69294 13.0465 9.25765 12.48 9.25765 11.7829V10.5212C9.25765 9.82412 9.82412 9.25765 10.5212 9.25765H11.7829C12.48 9.25765 13.0465 8.69294 13.0465 7.99588V6.73235C13.0465 6.03529 13.6112 5.47059 14.3082 5.47059H15.5718C16.2688 5.47059 16.8335 6.03529 16.8335 6.73235V7.99588C16.8335 8.69294 16.2688 9.25765 15.5718 9.25765H14.3082C13.6112 9.25765 13.0465 9.82412 13.0465 10.5212V11.7829C13.0465 12.48 12.48 13.0465 11.7829 13.0465H10.5212C9.82412 13.0465 9.25765 13.6112 9.25765 14.3082V15.5718C9.25765 16.2688 9.82412 16.8335 10.5212 16.8335H11.7829C12.48 16.8335 13.0465 17.4 13.0465 18.0971V19.3588C13.0465 20.0576 13.6112 20.6224 14.3082 20.6224H15.5718C16.2688 20.6224 16.8335 20.0576 16.8335 19.3588V18.0971C16.8335 17.4 17.4 16.8335 18.0971 16.8335H19.3588C20.0559 16.8335 20.6224 16.2688 20.6224 15.5718V14.3082C20.6224 13.6112 20.0559 13.0465 19.3588 13.0465H18.0971C17.4 13.0465 16.8335 13.6112 16.8335 14.3082V15.5718C16.8335 16.2688 16.2688 16.8335 15.5718 16.8335H14.3082C13.6112 16.8335 13.0465 16.2688 13.0465 15.5718V14.3082C13.0465 13.6112 13.6112 13.0465 14.3082 13.0465H15.5718C16.2688 13.0465 16.8335 12.48 16.8335 11.7829V10.5212C16.8335 9.82412 17.4 9.25765 18.0971 9.25765H19.3588C20.0559 9.25765 20.6224 9.82412 20.6224 10.5212V11.7829C20.6224 12.48 21.1871 13.0465 21.8841 13.0465H23.1476C23.8447 13.0465 24.4094 13.6112 24.4094 14.3082Z" fill="#A0EC06"/>
</svg>
