<svg width="179" height="29" viewBox="0 0 179 29" fill="none" xmlns="http://www.w3.org/2000/svg">
<path d="M108.307 13.2163C107.853 13.2163 107.44 13.1474 107.065 13.0094C106.691 12.8715 106.32 12.6416 105.952 12.3197L106.316 11.6497C106.671 11.9387 107.006 12.1489 107.321 12.2803C107.637 12.4051 107.965 12.4675 108.307 12.4675C108.812 12.4675 109.203 12.3657 109.479 12.1621C109.755 11.9519 109.893 11.6563 109.893 11.2753C109.893 11.0126 109.808 10.7958 109.637 10.625C109.473 10.4476 109.23 10.3261 108.908 10.2604L107.775 10.0437C107.203 9.93858 106.789 9.74152 106.533 9.4525C106.277 9.15691 106.149 8.80878 106.149 8.40809C106.149 8.04681 106.231 7.71838 106.395 7.42279C106.559 7.12721 106.809 6.89074 107.144 6.71338C107.479 6.52946 107.896 6.4375 108.395 6.4375C108.789 6.4375 109.167 6.49662 109.528 6.61485C109.89 6.72652 110.235 6.92029 110.563 7.19618L110.198 7.86618C109.916 7.65598 109.633 7.49177 109.351 7.37353C109.069 7.24873 108.757 7.18632 108.415 7.18632C107.955 7.18632 107.607 7.28814 107.371 7.49177C107.134 7.68882 107.016 7.95814 107.016 8.29971C107.016 8.56245 107.098 8.76936 107.262 8.92044C107.433 9.06495 107.679 9.17005 108.001 9.23574L109.134 9.4525C109.699 9.5576 110.11 9.77436 110.366 10.1028C110.629 10.4312 110.76 10.7958 110.76 11.1965C110.76 11.7942 110.547 12.2803 110.12 12.6547C109.699 13.0291 109.095 13.2163 108.307 13.2163Z" fill="black"/>
<path d="M115.113 13.2163C114.43 13.2163 113.839 13.0718 113.339 12.7828C112.84 12.4872 112.456 12.0865 112.187 11.5807C111.917 11.0684 111.783 10.4838 111.783 9.82691C111.783 9.17005 111.917 8.58873 112.187 8.08294C112.456 7.57059 112.84 7.1699 113.339 6.88088C113.839 6.58529 114.43 6.4375 115.113 6.4375C115.566 6.4375 115.977 6.50319 116.345 6.63456C116.712 6.75936 117.054 6.94657 117.369 7.19618L117.015 7.85632C116.739 7.63956 116.443 7.47534 116.128 7.36368C115.819 7.24544 115.481 7.18632 115.113 7.18632C114.607 7.18632 114.17 7.29799 113.803 7.52132C113.435 7.73809 113.149 8.04681 112.945 8.4475C112.748 8.84162 112.65 9.30142 112.65 9.82691C112.65 10.3524 112.748 10.8155 112.945 11.2162C113.149 11.6103 113.435 11.919 113.803 12.1424C114.17 12.3591 114.607 12.4675 115.113 12.4675C115.481 12.4675 115.819 12.4117 116.128 12.3C116.443 12.1818 116.739 12.0143 117.015 11.7975L117.369 12.4576C117.054 12.7073 116.712 12.8977 116.345 13.0291C115.977 13.1539 115.566 13.2163 115.113 13.2163Z" fill="black"/>
<path d="M118.631 13.1178V6.53603H119.478V13.1178H118.631Z" fill="black"/>
<path d="M121.104 13.1178V6.53603H125.597V7.26515H121.951V9.37368H125.301V10.0831H121.951V12.3887H125.597V13.1178H121.104Z" fill="black"/>
<path d="M126.944 13.1178V6.53603H127.89L131.575 11.9157V6.53603H132.423V13.1178H131.477L127.792 7.73809V13.1178H126.944Z" fill="black"/>
<path d="M135.74 13.1178V7.28485H133.671V6.53603H138.647V7.28485H136.588V13.1178H135.74Z" fill="black"/>
<path d="M139.905 13.1178V6.53603H140.753V13.1178H139.905Z" fill="black"/>
<path d="M142.378 13.1178V6.53603H146.871V7.26515H143.225V9.37368H146.575V10.0831H143.225V13.1178H142.378Z" fill="black"/>
<path d="M148.122 13.1178V6.53603H148.97V13.1178H148.122Z" fill="black"/>
<path d="M153.63 13.2163C152.947 13.2163 152.356 13.0718 151.856 12.7828C151.357 12.4872 150.973 12.0865 150.704 11.5807C150.434 11.0684 150.3 10.4838 150.3 9.82691C150.3 9.17005 150.434 8.58873 150.704 8.08294C150.973 7.57059 151.357 7.1699 151.856 6.88088C152.356 6.58529 152.947 6.4375 153.63 6.4375C154.083 6.4375 154.494 6.50319 154.862 6.63456C155.229 6.75936 155.571 6.94657 155.886 7.19618L155.532 7.85632C155.256 7.63956 154.96 7.47534 154.645 7.36368C154.336 7.24544 153.998 7.18632 153.63 7.18632C153.124 7.18632 152.687 7.29799 152.319 7.52132C151.952 7.73809 151.666 8.04681 151.462 8.4475C151.265 8.84162 151.167 9.30142 151.167 9.82691C151.167 10.3524 151.265 10.8155 151.462 11.2162C151.666 11.6103 151.952 11.919 152.319 12.1424C152.687 12.3591 153.124 12.4675 153.63 12.4675C153.998 12.4675 154.336 12.4117 154.645 12.3C154.96 12.1818 155.256 12.0143 155.532 11.7975L155.886 12.4576C155.571 12.7073 155.229 12.8977 154.862 13.0291C154.494 13.1539 154.083 13.2163 153.63 13.2163Z" fill="black"/>
<path d="M107.952 22.3357V16.5028H105.883V15.754H110.859V16.5028H108.799V22.3357H107.952Z" fill="black"/>
<path d="M112.117 22.3357V15.754H116.61V16.4831H112.964V18.5916H116.314V19.301H112.964V21.6066H116.61V22.3357H112.117Z" fill="black"/>
<path d="M120.992 22.4343C120.309 22.4343 119.718 22.2898 119.219 22.0007C118.719 21.7051 118.335 21.3045 118.066 20.7987C117.796 20.2863 117.662 19.7017 117.662 19.0448C117.662 18.388 117.796 17.8067 118.066 17.3009C118.335 16.7885 118.719 16.3878 119.219 16.0988C119.718 15.8032 120.309 15.6554 120.992 15.6554C121.445 15.6554 121.856 15.7211 122.224 15.8525C122.592 15.9773 122.933 16.1645 123.248 16.4141L122.894 17.0743C122.618 16.8575 122.322 16.6933 122.007 16.5816C121.698 16.4634 121.36 16.4043 120.992 16.4043C120.486 16.4043 120.049 16.5159 119.682 16.7393C119.314 16.956 119.028 17.2647 118.824 17.6654C118.627 18.0596 118.529 18.5194 118.529 19.0448C118.529 19.5703 118.627 20.0334 118.824 20.4341C119.028 20.8282 119.314 21.137 119.682 21.3603C120.049 21.5771 120.486 21.6854 120.992 21.6854C121.36 21.6854 121.698 21.6296 122.007 21.5179C122.322 21.3997 122.618 21.2322 122.894 21.0154L123.248 21.6756C122.933 21.9252 122.592 22.1157 122.224 22.2471C121.856 22.3719 121.445 22.4343 120.992 22.4343Z" fill="black"/>
<path d="M124.51 22.3357V15.754H125.357V18.5719H129.141V15.754H129.988V22.3357H129.141V19.3207H125.357V22.3357H124.51Z" fill="black"/>
<path d="M131.601 22.3357V15.754H132.547L136.232 21.1337V15.754H137.08V22.3357H136.134L132.449 16.956V22.3357H131.601Z" fill="black"/>
<path d="M141.728 22.4343C141.044 22.4343 140.453 22.2898 139.954 22.0007C139.455 21.7051 139.071 21.3045 138.801 20.7987C138.532 20.2863 138.397 19.7017 138.397 19.0448C138.397 18.388 138.532 17.8067 138.801 17.3009C139.071 16.7885 139.455 16.3878 139.954 16.0988C140.453 15.8032 141.044 15.6554 141.728 15.6554C142.417 15.6554 143.008 15.8032 143.501 16.0988C144 16.3878 144.385 16.7885 144.654 17.3009C144.923 17.8067 145.058 18.388 145.058 19.0448C145.058 19.7017 144.923 20.2863 144.654 20.7987C144.385 21.3045 144 21.7051 143.501 22.0007C143.008 22.2898 142.417 22.4343 141.728 22.4343ZM141.728 21.6854C142.233 21.6854 142.67 21.5771 143.038 21.3603C143.406 21.137 143.688 20.8282 143.885 20.4341C144.089 20.0334 144.191 19.5703 144.191 19.0448C144.191 18.5194 144.089 18.0596 143.885 17.6654C143.688 17.2647 143.406 16.956 143.038 16.7393C142.67 16.5159 142.233 16.4043 141.728 16.4043C141.222 16.4043 140.785 16.5159 140.417 16.7393C140.049 16.956 139.763 17.2647 139.56 17.6654C139.363 18.0596 139.264 18.5194 139.264 19.0448C139.264 19.5703 139.363 20.0334 139.56 20.4341C139.763 20.8282 140.049 21.137 140.417 21.3603C140.785 21.5771 141.222 21.6854 141.728 21.6854Z" fill="black"/>
<path d="M146.381 22.3357V15.754H147.228V21.5869H150.381V22.3357H146.381Z" fill="black"/>
<path d="M153.822 22.4343C153.139 22.4343 152.548 22.2898 152.049 22.0007C151.55 21.7051 151.165 21.3045 150.896 20.7987C150.627 20.2863 150.492 19.7017 150.492 19.0448C150.492 18.388 150.627 17.8067 150.896 17.3009C151.165 16.7885 151.55 16.3878 152.049 16.0988C152.548 15.8032 153.139 15.6554 153.822 15.6554C154.512 15.6554 155.103 15.8032 155.596 16.0988C156.095 16.3878 156.479 16.7885 156.749 17.3009C157.018 17.8067 157.153 18.388 157.153 19.0448C157.153 19.7017 157.018 20.2863 156.749 20.7987C156.479 21.3045 156.095 21.7051 155.596 22.0007C155.103 22.2898 154.512 22.4343 153.822 22.4343ZM153.822 21.6854C154.328 21.6854 154.765 21.5771 155.133 21.3603C155.501 21.137 155.783 20.8282 155.98 20.4341C156.184 20.0334 156.286 19.5703 156.286 19.0448C156.286 18.5194 156.184 18.0596 155.98 17.6654C155.783 17.2647 155.501 16.956 155.133 16.7393C154.765 16.5159 154.328 16.4043 153.822 16.4043C153.317 16.4043 152.88 16.5159 152.512 16.7393C152.144 16.956 151.858 17.2647 151.655 17.6654C151.458 18.0596 151.359 18.5194 151.359 19.0448C151.359 19.5703 151.458 20.0334 151.655 20.4341C151.858 20.8282 152.144 21.137 152.512 21.3603C152.88 21.5771 153.317 21.6854 153.822 21.6854Z" fill="black"/>
<path d="M161.51 22.4343C160.827 22.4343 160.236 22.2898 159.737 22.0007C159.238 21.7051 158.853 21.3045 158.584 20.7987C158.315 20.2863 158.18 19.7017 158.18 19.0448C158.18 18.388 158.315 17.8067 158.584 17.3009C158.853 16.7885 159.238 16.3878 159.737 16.0988C160.236 15.8032 160.827 15.6554 161.51 15.6554C161.977 15.6554 162.417 15.7211 162.831 15.8525C163.244 15.9839 163.609 16.1744 163.924 16.424L163.579 17.0743C163.284 16.8641 162.962 16.6998 162.614 16.5816C162.266 16.4634 161.898 16.4043 161.51 16.4043C161.005 16.4043 160.568 16.5159 160.2 16.7393C159.832 16.956 159.546 17.2647 159.343 17.6654C159.146 18.0596 159.047 18.5194 159.047 19.0448C159.047 19.5703 159.146 20.0334 159.343 20.4341C159.546 20.8282 159.832 21.137 160.2 21.3603C160.568 21.5771 161.005 21.6854 161.51 21.6854C161.924 21.6854 162.289 21.6132 162.604 21.4687C162.926 21.3242 163.192 21.114 163.402 20.8381V19.5079H161.412V18.7591H164.249V21.114C163.96 21.5278 163.586 21.8529 163.126 22.0894C162.666 22.3193 162.128 22.4343 161.51 22.4343Z" fill="black"/>
<path d="M165.673 22.3357V15.754H166.52V22.3357H165.673Z" fill="black"/>
<path d="M168.146 22.3357V15.754H172.639V16.4831H168.993V18.5916H172.343V19.301H168.993V21.6066H172.639V22.3357H168.146Z" fill="black"/>
<path d="M176.046 22.4343C175.592 22.4343 175.179 22.3653 174.804 22.2273C174.43 22.0894 174.059 21.8595 173.691 21.5376L174.055 20.8676C174.41 21.1567 174.745 21.3669 175.06 21.4982C175.376 21.623 175.704 21.6854 176.046 21.6854C176.551 21.6854 176.942 21.5836 177.218 21.38C177.494 21.1698 177.632 20.8742 177.632 20.4932C177.632 20.2305 177.547 20.0137 177.376 19.8429C177.212 19.6656 176.969 19.5441 176.647 19.4784L175.514 19.2616C174.942 19.1565 174.528 18.9595 174.272 18.6704C174.016 18.3748 173.888 18.0267 173.888 17.626C173.888 17.2647 173.97 16.9363 174.134 16.6407C174.298 16.3451 174.548 16.1087 174.883 15.9313C175.218 15.7474 175.635 15.6554 176.134 15.6554C176.528 15.6554 176.906 15.7146 177.267 15.8328C177.629 15.9445 177.974 16.1382 178.302 16.4141L177.937 17.0841C177.655 16.8739 177.372 16.7097 177.09 16.5915C176.808 16.4667 176.496 16.4043 176.154 16.4043C175.694 16.4043 175.346 16.5061 175.11 16.7097C174.873 16.9068 174.755 17.1761 174.755 17.5176C174.755 17.7804 174.837 17.9873 175.001 18.1384C175.172 18.2829 175.418 18.388 175.74 18.4537L176.873 18.6704C177.438 18.7755 177.849 18.9923 178.105 19.3207C178.368 19.6492 178.499 20.0137 178.499 20.4144C178.499 21.0122 178.286 21.4982 177.859 21.8726C177.438 22.2471 176.834 22.4343 176.046 22.4343Z" fill="black"/>
<path d="M0.876723 22.5436C0.772078 22.5436 0.677897 22.5125 0.594181 22.4501C0.531393 22.3669 0.5 22.2734 0.5 22.1695V1.09132C0.5 0.987389 0.531393 0.90424 0.594181 0.841879C0.677897 0.75873 0.772078 0.717156 0.876723 0.717156H3.76493C3.86958 0.717156 3.95329 0.75873 4.01608 0.841879C4.0998 0.90424 4.14166 0.987389 4.14166 1.09132V19.2697C4.14166 19.3736 4.19398 19.4256 4.29862 19.4256H11.207C11.3117 19.4256 11.3954 19.4671 11.4582 19.5503C11.5419 19.6126 11.5837 19.6958 11.5837 19.7997V22.1695C11.5837 22.2734 11.5419 22.3669 11.4582 22.4501C11.3954 22.5125 11.3117 22.5436 11.207 22.5436H0.876723Z" fill="black"/>
<path d="M19.4567 22.7931C17.8033 22.7931 16.3802 22.3773 15.1872 21.5459C14.0152 20.7144 13.1885 19.5607 12.7071 18.0848C12.3513 16.9623 12.1734 15.7774 12.1734 14.5302C12.1734 13.1998 12.3408 12.015 12.6757 10.9756C13.1571 9.5205 13.9942 8.3876 15.1872 7.57691C16.3802 6.76621 17.8138 6.36086 19.4881 6.36086C21.0787 6.36086 22.4496 6.76621 23.6007 7.57691C24.7727 8.3876 25.5994 9.51011 26.0808 10.9444C26.4575 11.9422 26.6459 13.1271 26.6459 14.499C26.6459 15.8086 26.468 16.9935 26.1122 18.0536C25.6308 19.5295 24.8041 20.6936 23.6321 21.5459C22.46 22.3773 21.0683 22.7931 19.4567 22.7931ZM19.4567 19.675C20.2311 19.675 20.8904 19.4567 21.4345 19.0202C21.9996 18.5837 22.4077 17.9705 22.6589 17.1806C22.8682 16.4946 22.9728 15.6215 22.9728 14.5614C22.9728 13.4389 22.8682 12.5658 22.6589 11.9422C22.4287 11.1523 22.031 10.5495 21.4659 10.1337C20.9008 9.69719 20.2102 9.47893 19.3939 9.47893C18.6196 9.47893 17.9498 9.69719 17.3848 10.1337C16.8197 10.5495 16.4115 11.1523 16.1604 11.9422C15.9511 12.6698 15.8465 13.5428 15.8465 14.5614C15.8465 15.5799 15.9511 16.453 16.1604 17.1806C16.3906 17.9705 16.7883 18.5837 17.3534 19.0202C17.9394 19.4567 18.6405 19.675 19.4567 19.675Z" fill="black"/>
<path d="M38.706 6.98447C38.706 6.88054 38.7374 6.79739 38.8001 6.73503C38.8839 6.65188 38.978 6.6103 39.0827 6.6103H41.9709C42.0755 6.6103 42.1593 6.65188 42.222 6.73503C42.3058 6.79739 42.3476 6.88054 42.3476 6.98447V21.4835C42.3476 24.0819 41.5942 25.9319 40.0873 27.0336C38.6013 28.1562 36.6445 28.7174 34.2167 28.7174C33.5679 28.7174 32.9295 28.6862 32.3017 28.6239C32.0715 28.6031 31.9563 28.468 31.9563 28.2185L32.0505 25.6617C32.0505 25.433 32.197 25.3187 32.49 25.3187C33.097 25.3811 33.6411 25.4123 34.1225 25.4123C35.6922 25.4123 36.8433 25.1004 37.5758 24.4768C38.3292 23.874 38.706 22.845 38.706 21.3899V21.1405C38.706 21.0781 38.685 21.047 38.6432 21.047C38.6013 21.0262 38.5595 21.0366 38.5176 21.0781C37.6595 21.9928 36.4456 22.4501 34.876 22.4501C33.5156 22.4501 32.2703 22.1071 31.1401 21.4211C30.0099 20.7352 29.2251 19.6854 28.7856 18.2719C28.5135 17.2949 28.3775 16.0373 28.3775 14.499C28.3775 12.7737 28.5449 11.4537 28.8798 10.5391C29.2984 9.27106 30.0204 8.26288 31.0459 7.51454C32.0715 6.74542 33.2749 6.36086 34.6562 6.36086C36.3096 6.36086 37.5967 6.83896 38.5176 7.79517C38.5595 7.85753 38.6013 7.87832 38.6432 7.85753C38.685 7.83675 38.706 7.79517 38.706 7.73281V6.98447ZM38.4862 17.2429C38.5699 16.9311 38.6222 16.5985 38.6432 16.2451C38.685 15.871 38.706 15.2785 38.706 14.4678C38.706 13.6779 38.685 13.1167 38.6432 12.7841C38.6222 12.4307 38.5595 12.0877 38.4548 11.7551C38.2874 11.0691 37.9421 10.5183 37.4188 10.1025C36.9165 9.6868 36.2677 9.47893 35.4724 9.47893C34.719 9.47893 34.0806 9.6868 33.5574 10.1025C33.0342 10.5183 32.6575 11.0691 32.4272 11.7551C32.1761 12.3372 32.0505 13.2518 32.0505 14.499C32.0505 15.7878 32.1552 16.6921 32.3645 17.2117C32.5738 17.8769 32.9505 18.4278 33.4946 18.8643C34.0597 19.2801 34.7294 19.4879 35.5038 19.4879C36.3201 19.4879 36.9793 19.2801 37.4816 18.8643C37.9839 18.4486 38.3188 17.9081 38.4862 17.2429Z" fill="black"/>
<path d="M46.6587 4.42766C46.0099 4.42766 45.4762 4.21979 45.0576 3.80404C44.639 3.3883 44.4297 2.85823 44.4297 2.21383C44.4297 1.56943 44.639 1.03936 45.0576 0.623615C45.4762 0.207872 46.0099 0 46.6587 0C47.3075 0 47.8412 0.207872 48.2597 0.623615C48.6783 1.03936 48.8876 1.56943 48.8876 2.21383C48.8876 2.85823 48.6783 3.3883 48.2597 3.80404C47.8412 4.21979 47.3075 4.42766 46.6587 4.42766ZM45.1518 22.5436C45.0471 22.5436 44.9529 22.5125 44.8692 22.4501C44.8064 22.3669 44.775 22.2734 44.775 22.1695V6.95329C44.775 6.84936 44.8064 6.76621 44.8692 6.70385C44.9529 6.6207 45.0471 6.57912 45.1518 6.57912H48.04C48.1446 6.57912 48.2283 6.6207 48.2911 6.70385C48.3748 6.76621 48.4167 6.84936 48.4167 6.95329V22.1695C48.4167 22.2734 48.3748 22.3669 48.2911 22.4501C48.2283 22.5125 48.1446 22.5436 48.04 22.5436H45.1518Z" fill="black"/>
<path d="M50.485 22.5436C50.3385 22.5436 50.2339 22.5021 50.1711 22.4189C50.1292 22.315 50.1501 22.2006 50.2339 22.0759L55.3196 14.6549C55.3615 14.5926 55.3615 14.5302 55.3196 14.4678L50.2339 7.07802C50.192 6.99487 50.1711 6.92211 50.1711 6.85975C50.1711 6.69345 50.2757 6.6103 50.485 6.6103H53.5616C53.7499 6.6103 53.8964 6.69345 54.0011 6.85975L57.266 11.6616C57.3079 11.7031 57.3497 11.7239 57.3916 11.7239C57.4335 11.7239 57.4648 11.7031 57.4858 11.6616L60.7507 6.85975C60.8554 6.69345 61.0019 6.6103 61.1902 6.6103H64.4865C64.633 6.6103 64.7272 6.66227 64.7691 6.76621C64.8319 6.84936 64.8214 6.95329 64.7377 7.07802L59.6519 14.4678C59.631 14.5302 59.631 14.5926 59.6519 14.6549L64.7377 22.0759C64.7795 22.1591 64.8005 22.2318 64.8005 22.2942C64.8005 22.4605 64.6958 22.5436 64.4865 22.5436H61.41C61.2216 22.5436 61.0751 22.4605 60.9705 22.2942L57.7055 17.4924C57.6846 17.4508 57.6532 17.43 57.6114 17.43C57.5695 17.43 57.5276 17.4508 57.4858 17.4924L54.2208 22.2942C54.1162 22.4605 53.9697 22.5436 53.7813 22.5436H50.485Z" fill="black"/>
<path d="M77.9323 7.96728C78.0542 7.79221 78.359 7.79222 78.4809 7.96728L88.3572 22.1472C88.4791 22.3223 88.3267 22.5411 88.0828 22.5411H68.3304C68.0865 22.5411 67.9341 22.3223 68.056 22.1472L77.9323 7.96728Z" fill="black"/>
<path d="M80.7639 6.61207C80.5201 6.61207 80.3677 6.83089 80.4896 7.00596L90.3658 21.1859C90.4878 21.361 90.7926 21.361 90.9145 21.1859L100.791 7.00595C100.913 6.83089 100.76 6.61207 100.516 6.61207L80.7639 6.61207Z" fill="black"/>
</svg>
