<svg width="123" height="38" viewBox="0 0 123 38" fill="none" xmlns="http://www.w3.org/2000/svg">
<g clip-path="url(#clip0_2457_309)">
<path d="M30.4621 6.1814V24.9437H26.666V6.1814H30.4621Z" fill="white"/>
<path d="M46.0989 12.2847V24.9669C46.0989 28.9034 43.0277 31.312 39.2862 31.312C35.5446 31.312 32.9567 29.1138 32.6917 25.8556H36.5034C36.6593 27.1963 37.8441 27.8043 39.4187 27.8043C39.8006 27.8355 40.1904 27.7887 40.5489 27.6562C40.9075 27.5237 41.2427 27.3132 41.5077 27.0404C41.7805 26.7676 41.991 26.4402 42.1157 26.0738C42.2482 25.7153 42.295 25.3255 42.2638 24.9436V23.4002C41.1803 24.0705 39.9253 24.4135 38.6548 24.3901C37.0178 24.4057 35.4433 23.7743 34.2663 22.6363C33.0892 21.4982 32.4033 19.9471 32.3565 18.3101C32.3331 17.4761 32.4734 16.642 32.7774 15.8703C33.0814 15.0908 33.5491 14.3893 34.1337 13.7969C34.7262 13.2045 35.4277 12.7446 36.2072 12.4328C36.9867 12.121 37.8129 11.9729 38.6548 12.0041C39.9253 11.9885 41.1803 12.3315 42.2638 12.994V12.3237L46.0911 12.2925L46.0989 12.2847ZM42.2716 19.76V16.6654C41.952 16.1821 41.5155 15.7924 41.001 15.5274C40.4866 15.2623 39.9097 15.1298 39.3329 15.1454C38.912 15.122 38.4833 15.1844 38.0935 15.3403C37.696 15.4884 37.3374 15.7222 37.0412 16.0262C36.745 16.3224 36.5112 16.6888 36.3631 17.0785C36.215 17.4761 36.1448 17.897 36.176 18.3179C36.2228 19.1208 36.5813 19.8769 37.1659 20.4225C37.7584 20.9682 38.5378 21.2644 39.3407 21.2566C39.9175 21.2878 40.4944 21.1708 41.0088 20.9058C41.5233 20.6408 41.9598 20.2511 42.2794 19.76H42.2716Z" fill="white"/>
<path d="M61.3692 18.4661C61.377 19.8068 60.9873 21.1241 60.2468 22.2466C59.5063 23.3691 58.4462 24.2421 57.2068 24.7644C55.9674 25.2866 54.5955 25.4269 53.2782 25.1619C51.9608 24.8969 50.7448 24.2577 49.7939 23.3067C48.8429 22.3557 48.1881 21.1475 47.9309 19.8302C47.6659 18.5129 47.8062 17.1488 48.3206 15.9016C48.8351 14.6622 49.7081 13.6021 50.8306 12.8538C51.953 12.1055 53.2704 11.7157 54.6111 11.7157C55.5075 11.6846 56.3961 11.8327 57.238 12.16C58.072 12.4874 58.8281 12.9785 59.4673 13.6099C60.1065 14.2413 60.5975 14.9974 60.9327 15.8314C61.2601 16.6655 61.416 17.5541 61.3848 18.4505L61.3692 18.4661ZM57.6667 18.4661C57.6901 18.0452 57.6277 17.6243 57.4874 17.2267C57.3471 16.8292 57.121 16.4706 56.8326 16.1666C56.5442 15.8626 56.1934 15.6132 55.8115 15.4495C55.4217 15.2858 55.0086 15.2 54.5877 15.2C54.1668 15.2 53.7536 15.2858 53.3639 15.4495C52.9742 15.6132 52.6312 15.8626 52.3428 16.1666C52.0544 16.4706 51.8283 16.837 51.688 17.2267C51.5477 17.6165 51.4853 18.0452 51.5087 18.4661C51.4853 18.887 51.5477 19.3079 51.688 19.7055C51.8283 20.103 52.0544 20.4616 52.3428 20.7656C52.6312 21.0696 52.982 21.319 53.3639 21.4827C53.7536 21.6464 54.1668 21.7321 54.5877 21.7321C55.0086 21.7321 55.4295 21.6464 55.8115 21.4827C56.2012 21.319 56.5442 21.0696 56.8326 20.7656C57.121 20.4616 57.3471 20.0952 57.4874 19.7055C57.6277 19.3079 57.6901 18.887 57.6667 18.4661Z" fill="white"/>
<path d="M85.1357 12.3159V24.928H81.3942V24.2187C80.3107 24.8969 79.0557 25.2554 77.7696 25.2398C76.0781 25.1463 74.4879 24.4058 73.3265 23.1742C72.165 21.9426 71.5181 20.3135 71.5181 18.622C71.5181 16.9305 72.165 15.3014 73.3265 14.0698C74.4879 12.8382 76.0781 12.0977 77.7696 12.0041C79.0479 11.9886 80.3107 12.3471 81.3942 13.0253V12.3159H85.1357ZM81.363 20.5629V16.7123C81.0278 16.229 80.5757 15.8392 80.0457 15.5898C79.5156 15.3326 78.931 15.2234 78.3386 15.2702C77.4422 15.2702 76.5847 15.6288 75.9534 16.2602C75.322 16.8915 74.9634 17.749 74.9634 18.6454C74.9634 19.5418 75.322 20.3992 75.9534 21.0306C76.5847 21.662 77.4422 22.0206 78.3386 22.0206C78.9232 22.0595 79.5078 21.9504 80.0457 21.701C80.5757 21.4437 81.0278 21.0618 81.363 20.5785V20.5629Z" fill="white"/>
<path d="M100.562 18.1075V24.9436H96.8281V18.5518C96.8281 16.4784 95.807 15.4027 93.9674 15.4027C93.3984 15.4494 92.8449 15.6131 92.3461 15.8937C91.8472 16.1666 91.4107 16.5485 91.0677 17.0006V24.9436H87.3262V12.3393H91.0989V13.2825C92.1278 12.4484 93.4218 12.0041 94.7391 12.0197C98.0987 12.0197 100.562 14.3815 100.562 18.1075Z" fill="white"/>
<path d="M119.675 6.64902H118.731V8.87835H118.186V6.64902H117.243V6.15015H119.682V6.64902H119.675Z" fill="white"/>
<path d="M122.941 8.90174H122.395V7.38174L121.678 8.46522H121.343L120.555 7.38174V8.92512H120.002V6.15015H120.392L121.483 7.80266L122.574 6.15015H122.941V8.90174Z" fill="white"/>
<path d="M24.9046 24.9202H21.0228L18.4972 15.504L13.0564 24.9202H8.70687L17.1253 10.3438L15.7534 5.25374L4.34954 24.9202H0L14.4127 0H18.24L19.8925 6.20472H23.8211L21.1475 10.8661L24.9046 24.9202Z" fill="white"/>
<path d="M115.801 6.1814V24.9437H111.973V24.2343C110.89 24.9125 109.627 25.271 108.349 25.2554C106.657 25.1619 105.067 24.4214 103.906 23.1898C102.744 21.9582 102.097 20.3291 102.097 18.6376C102.097 16.9461 102.744 15.317 103.906 14.0854C105.067 12.8538 106.657 12.1133 108.349 12.0198C109.627 12.0042 110.89 12.3627 111.973 13.0409V6.1814H115.801ZM111.973 20.5629V16.6811C111.63 16.2056 111.178 15.8237 110.648 15.5742C110.118 15.3248 109.541 15.2079 108.957 15.2468C108.06 15.2468 107.195 15.6054 106.556 16.2368C105.917 16.876 105.558 17.7334 105.558 18.6376C105.558 19.5418 105.917 20.3992 106.556 21.0384C107.195 21.6776 108.052 22.0284 108.957 22.0284C109.541 22.0595 110.126 21.9426 110.656 21.6854C111.186 21.4282 111.638 21.0384 111.973 20.5629Z" fill="white"/>
<path d="M70.7152 15.5119C69.9669 15.5119 69.2342 15.6756 68.556 15.9796C67.8779 16.2836 67.2699 16.7357 66.7788 17.2891V24.8969H63.0996V12.3705H66.8723V13.3059C67.4102 12.8928 68.0338 12.5888 68.6885 12.4251C69.3511 12.2536 70.037 12.2224 70.7074 12.316V15.5119H70.7152Z" fill="white"/>
<path d="M53.917 37.813V31.6707H57.7365V32.5437H54.829V34.2274H56.6998V35.1004H54.829V37.8208H53.917V37.813Z" fill="white"/>
<path d="M63.0291 37.8128C62.6783 37.9453 62.312 38.0077 61.9378 37.9999C61.5948 37.9999 61.2519 37.9375 60.9245 37.8128C60.6361 37.7037 60.371 37.5322 60.1528 37.3139C59.9501 37.0957 59.7786 36.8541 59.6539 36.589C59.5214 36.3162 59.4279 36.0278 59.3577 35.7316C59.2408 35.1314 59.2408 34.5078 59.3577 33.9076C59.4279 33.6114 59.5214 33.3152 59.6539 33.0346C59.7864 32.7695 59.9501 32.5201 60.1528 32.3096C60.371 32.0914 60.6361 31.9277 60.9245 31.8186C61.2675 31.6783 61.6416 31.6159 62.0158 31.6315C62.3899 31.6159 62.7563 31.6783 63.107 31.8186C63.3955 31.9277 63.6527 32.0914 63.8709 32.3096C64.0736 32.5201 64.2451 32.7695 64.3698 33.0346C64.5101 33.3074 64.6037 33.6036 64.666 33.9076C64.7829 34.5078 64.7829 35.1314 64.666 35.7316C64.6115 36.0278 64.5101 36.3162 64.3698 36.589C64.2451 36.8618 64.0736 37.1035 63.8709 37.3139C63.6371 37.54 63.3487 37.7115 63.0369 37.8128H63.0291ZM61.1817 36.9086C61.4234 37.0489 61.704 37.1269 61.9846 37.1113C62.273 37.1113 62.5536 37.0411 62.803 36.893C63.0291 36.7527 63.2162 36.5578 63.3487 36.324C63.4812 36.0902 63.5747 35.8407 63.6293 35.5835C63.6917 35.3263 63.7306 35.0612 63.7306 34.804C63.7306 34.5312 63.6995 34.2584 63.6293 33.9855C63.5747 33.7283 63.4812 33.4789 63.3487 33.245C63.2162 33.019 63.0291 32.8319 62.803 32.6994C62.5536 32.5591 62.273 32.4889 61.9846 32.4889C61.704 32.4811 61.4234 32.5513 61.1817 32.7072C60.9479 32.8397 60.7608 33.0346 60.6361 33.2762C60.5036 33.5023 60.41 33.7517 60.3399 34.0011C60.2853 34.2584 60.2541 34.5312 60.2541 34.7962C60.2541 35.069 60.2853 35.3418 60.3399 35.6147C60.4022 35.8719 60.5036 36.1135 60.6361 36.3396C60.7686 36.5501 60.9557 36.7215 61.1817 36.8385V36.893V36.9086Z" fill="white"/>
<path d="M69.2498 37.9455C68.9302 37.9689 68.6106 37.9221 68.3066 37.8052C68.0104 37.6883 67.7376 37.509 67.5115 37.2752C67.2932 37.0413 67.1218 36.7607 67.0204 36.4567C66.9191 36.1527 66.8879 35.8253 66.9269 35.5057V31.6707H67.8389V35.5057C67.8155 35.724 67.8389 35.9422 67.9012 36.1527C67.9636 36.3632 68.0727 36.558 68.2052 36.7217C68.5014 36.9478 68.8678 37.0725 69.242 37.0725C69.6161 37.0725 69.9747 36.9478 70.2787 36.7217C70.4346 36.558 70.5515 36.371 70.6217 36.1605C70.6996 35.95 70.7308 35.7318 70.7074 35.5057V31.6707H71.6194V35.5057C71.6584 35.8253 71.6194 36.1527 71.5259 36.4567C71.4245 36.7607 71.253 37.0413 71.0348 37.2752C70.8087 37.509 70.5437 37.6883 70.2397 37.8052C69.9357 37.9221 69.6161 37.9689 69.2965 37.9455H69.242H69.2498Z" fill="white"/>
<path d="M78.7282 37.813H77.8707L75.1971 33.6428C75.1114 33.4947 75.0256 33.3466 74.9555 33.1829V37.813H74.0435V31.6707H74.971L77.5745 35.7863C77.6681 35.9344 77.7538 36.0903 77.824 36.254V31.6707H78.736V37.813H78.7282Z" fill="white"/>
<path d="M81.2461 31.6706H82.9766C83.4442 31.6628 83.9041 31.7564 84.3407 31.9435C84.6992 32.0994 85.0188 32.341 85.2682 32.6528C85.4865 32.949 85.658 33.2842 85.7671 33.6271C85.8684 33.9779 85.923 34.3443 85.923 34.7106C85.923 35.077 85.8762 35.4434 85.7671 35.7941C85.658 36.1449 85.5021 36.4723 85.2916 36.7685C85.0578 37.0959 84.7382 37.3453 84.364 37.509C83.9197 37.7039 83.4364 37.7974 82.9532 37.7818H81.2539V31.6628L81.2461 31.6706ZM83.0935 36.9712C83.3975 36.9712 83.7015 36.9088 83.9743 36.7763C84.2081 36.6516 84.4108 36.4645 84.5589 36.2462C84.6992 36.028 84.8006 35.7863 84.8629 35.5369C84.9253 35.2797 84.9642 35.0146 84.9642 34.7574C84.9798 34.1962 84.8239 33.6505 84.5199 33.1828C84.3718 32.9724 84.1692 32.8009 83.9353 32.6918C83.7015 32.5826 83.4442 32.5281 83.187 32.5437H82.1659V36.9789H83.0935V36.9712Z" fill="white"/>
<path d="M91.8469 37.813L91.3558 36.4021H88.8615L88.3626 37.813H87.4038L89.5786 31.6472H90.5218L92.6965 37.813H91.8391H91.8469ZM91.0752 35.6382L90.3035 33.518C90.2178 33.2919 90.1476 33.0581 90.093 32.8242C90.093 33.0347 89.9605 33.2608 89.8748 33.518L89.1499 35.6382H91.0752Z" fill="white"/>
<path d="M96.3758 32.5515V37.813H95.4638V32.5515H93.7256V31.6707H98.0751V32.5515H96.3758Z" fill="white"/>
<path d="M100.296 37.813V31.6707H101.177V37.813H100.296Z" fill="white"/>
<path d="M107.281 37.8128C106.938 37.9453 106.564 38.0077 106.19 37.9999C105.815 38.0077 105.449 37.9453 105.098 37.8128C104.81 37.7037 104.553 37.5322 104.334 37.3139C104.124 37.1035 103.96 36.8541 103.836 36.589C103.695 36.3162 103.602 36.0278 103.539 35.7316C103.422 35.1314 103.422 34.5078 103.539 33.9076C103.594 33.6036 103.695 33.3152 103.836 33.0346C103.96 32.7695 104.132 32.5201 104.334 32.3096C104.553 32.0914 104.81 31.9277 105.098 31.8186C105.441 31.6861 105.815 31.6237 106.19 31.6315C106.564 31.6159 106.93 31.6783 107.281 31.8186C107.569 31.9277 107.834 32.0914 108.053 32.3096C108.255 32.5201 108.427 32.7695 108.551 33.0346C108.684 33.3152 108.778 33.6036 108.848 33.9076C108.965 34.5078 108.965 35.1314 108.848 35.7316C108.778 36.0278 108.684 36.3162 108.551 36.589C108.427 36.8618 108.255 37.1035 108.053 37.3139C107.834 37.5322 107.569 37.7037 107.281 37.8128ZM105.434 36.9086C105.683 37.0489 105.964 37.1191 106.252 37.1113C106.533 37.1113 106.813 37.0411 107.055 36.893C107.289 36.7527 107.476 36.5578 107.608 36.324C107.733 36.0902 107.827 35.8407 107.889 35.5835C107.943 35.3263 107.975 35.0612 107.975 34.804C107.975 34.5312 107.943 34.2584 107.889 33.9855C107.827 33.7283 107.725 33.4789 107.608 33.245C107.476 33.019 107.289 32.8241 107.055 32.6994C106.813 32.5591 106.533 32.4811 106.252 32.4967C105.964 32.4889 105.683 32.5669 105.434 32.715C105.207 32.8553 105.02 33.0502 104.888 33.284C104.763 33.5101 104.67 33.7595 104.607 34.0089C104.545 34.2662 104.506 34.5312 104.506 34.804C104.506 35.0768 104.537 35.3496 104.607 35.6225C104.67 35.8797 104.763 36.1213 104.888 36.3474C105.028 36.5578 105.215 36.7293 105.434 36.8463V36.9008V36.9086Z" fill="white"/>
<path d="M115.91 37.813H115.052L112.379 33.6428C112.293 33.4947 112.207 33.3466 112.137 33.1829V37.813H111.225V31.6707H112.153L114.756 35.7863C114.819 35.8877 114.896 36.0436 115.006 36.254V31.6707H115.918V37.813H115.91Z" fill="white"/>
</g>
<defs>
<clipPath id="clip0_2457_309">
<rect width="122.941" height="38" fill="white"/>
</clipPath>
</defs>
</svg>
