<svg width="190" height="38" viewBox="0 0 190 38" fill="none" xmlns="http://www.w3.org/2000/svg">
<g clip-path="url(#clip0_2457_345)">
<path d="M11.6211 15.9671L19.0014 8.58984L26.3847 15.9731L30.6766 11.6782L19.0014 0L7.32617 11.6752L11.6211 15.9671Z" fill="white"/>
<path d="M4.29433 14.7076L0.000976562 19.001L4.29433 23.2943L8.58768 19.001L4.29433 14.7076Z" fill="white"/>
<path d="M11.6212 22.0328L19.0015 29.4131L26.3848 22.0298L30.6798 26.3187L30.6768 26.3217L19.0015 37.9999L7.32632 26.3277L7.32031 26.3217L11.6212 22.0328Z" fill="white"/>
<path d="M33.7064 14.7086L29.4131 19.002L33.7064 23.2953L37.9998 19.002L33.7064 14.7086Z" fill="white"/>
<path d="M23.3565 18.9986L19.0016 14.6406L15.7811 17.8611L15.409 18.2302L14.6466 18.9926L14.6406 19.0016L14.6466 19.0076L19.0016 23.3595L23.3565 19.0016H23.3595L23.3565 18.9986Z" fill="white"/>
<path d="M44.6958 9.20801H54.036C56.353 9.20801 58.1058 9.80227 59.2943 10.9938C60.2127 11.9152 60.6719 13.0587 60.6719 14.4183V14.4754C60.6719 15.0516 60.5999 15.5588 60.4589 16C60.3148 16.4412 60.1257 16.8404 59.8856 17.1946C59.6485 17.5487 59.3724 17.8609 59.0572 18.131C58.7421 18.4011 58.4029 18.6292 58.0428 18.8213C59.2073 19.2625 60.1257 19.8628 60.795 20.6221C61.4643 21.3815 61.7975 22.4319 61.7975 23.7735V23.8306C61.7975 24.752 61.6204 25.5563 61.2662 26.2496C60.9121 26.9399 60.4048 27.5162 59.7415 27.9754C59.0812 28.4376 58.2859 28.7798 57.3555 29.0109C56.4251 29.242 55.3956 29.356 54.2671 29.356H44.6958V9.20801ZM53.1026 17.3537C54.081 17.3537 54.8583 17.1856 55.4346 16.8494C56.0109 16.5133 56.299 15.97 56.299 15.2227V15.1657C56.299 14.4934 56.0499 13.9801 55.5517 13.626C55.0534 13.2718 54.3331 13.0917 53.3937 13.0917H49.0177V17.3507H53.1056L53.1026 17.3537ZM54.2821 25.4723C55.2605 25.4723 56.0289 25.2952 56.5841 24.941C57.1394 24.5869 57.4185 24.0346 57.4185 23.2843V23.2273C57.4185 22.555 57.1604 22.0237 56.6411 21.6306C56.1219 21.2374 55.2875 21.0423 54.135 21.0423H49.0117V25.4753H54.2791L54.2821 25.4723Z" fill="white"/>
<path d="M67.356 9.20801H71.7889V29.359H67.356V9.20801Z" fill="white"/>
<path d="M78.5059 9.20801H82.5937L92.0359 21.6156V9.20801H96.4119V29.359H92.6422L82.8818 16.5493V29.359H78.5059V9.20801Z" fill="white"/>
<path d="M109.831 9.06396H113.919L122.557 29.359H117.923L116.08 24.839H107.559L105.716 29.359H101.196L109.834 9.06396H109.831ZM114.495 20.9253L111.818 14.3913L109.141 20.9253H114.495Z" fill="white"/>
<path d="M127.341 9.20801H131.429L140.871 21.6156V9.20801H145.247V29.359H141.477L131.717 16.5493V29.359H127.341V9.20801Z" fill="white"/>
<path d="M161.202 29.7044C159.722 29.7044 158.351 29.4342 157.084 28.9C155.817 28.3658 154.725 27.6274 153.803 26.697C152.882 25.7666 152.162 24.6681 151.646 23.4015C151.126 22.135 150.868 20.7814 150.868 19.3407V19.2837C150.868 17.8431 151.126 16.4955 151.646 15.2379C152.165 13.9803 152.882 12.8788 153.803 11.9274C154.725 10.976 155.829 10.2286 157.114 9.6824C158.399 9.13616 159.821 8.86304 161.376 8.86304C162.315 8.86304 163.174 8.94107 163.951 9.09414C164.728 9.24721 165.434 9.4603 166.067 9.72742C166.7 9.99754 167.285 10.3217 167.823 10.7059C168.36 11.09 168.858 11.5132 169.32 11.9724L166.499 15.2259C165.713 14.5146 164.911 13.9593 164.095 13.5571C163.279 13.155 162.363 12.9539 161.346 12.9539C160.502 12.9539 159.719 13.1159 158.999 13.4431C158.278 13.7702 157.66 14.2204 157.141 14.7967C156.625 15.3729 156.22 16.0392 155.931 16.7986C155.643 17.5579 155.499 18.3683 155.499 19.2297V19.2867C155.499 20.1511 155.643 20.9675 155.931 21.7328C156.22 22.5011 156.616 23.1734 157.126 23.7467C157.633 24.323 158.248 24.7792 158.969 25.1153C159.689 25.4515 160.481 25.6195 161.343 25.6195C162.495 25.6195 163.468 25.4094 164.263 24.9862C165.059 24.5661 165.851 23.9898 166.637 23.2605L169.458 26.1118C168.939 26.67 168.402 27.1682 167.847 27.6094C167.292 28.0506 166.679 28.4288 166.019 28.7469C165.356 29.0621 164.632 29.3052 163.846 29.4673C163.06 29.6293 162.177 29.7134 161.199 29.7134L161.202 29.7044Z" fill="white"/>
<path d="M174.681 9.20801H189.853V13.1518H179.057V17.2396H188.556V21.1834H179.057V25.4153H189.997V29.359H174.681V9.20801Z" fill="white"/>
</g>
<defs>
<clipPath id="clip0_2457_345">
<rect width="189.997" height="38" fill="white"/>
</clipPath>
</defs>
</svg>
