<svg width="131" height="40" viewBox="0 0 131 40" fill="none" xmlns="http://www.w3.org/2000/svg">
<g clip-path="url(#clip0_2457_404)">
<path d="M44.6957 19.7426C44.5406 15.8505 47.5655 12.5718 51.4576 12.4097C51.4787 12.4097 51.4999 12.4097 51.514 12.4097H51.8031C55.3991 12.4097 57.5214 14.525 58.1489 16.9998L55.9138 17.7472C55.4978 15.8435 53.7491 14.525 51.8031 14.6589C49.4763 14.6589 47.1424 16.3582 47.1424 19.785C47.1424 23.2117 49.4199 24.8475 51.8313 24.8475C53.7773 24.9039 55.5119 23.6136 56.0266 21.7381L58.2194 22.4432C57.4368 25.3129 54.7715 27.2519 51.8031 27.1179C47.9462 27.1884 44.7592 24.1213 44.6887 20.2644C44.6816 20.0952 44.6887 19.9189 44.6887 19.7426H44.6957Z" fill="white"/>
<path d="M62.57 26.7937H60.2573V12.3674H62.57V18.0082C63.2469 17.2044 64.2623 16.7531 65.3199 16.7954C67.7102 16.7954 68.8454 18.5088 68.8454 20.6452V26.7937H66.6173V21.0542C66.7583 20.0389 66.0532 19.094 65.0379 18.9389C64.8968 18.9248 64.7629 18.9248 64.6219 18.9389C63.5078 18.9389 62.6053 19.8414 62.6053 20.9555C62.6053 21.0119 62.6053 21.0753 62.6053 21.1318L62.57 26.7937Z" fill="white"/>
<path d="M74.0351 21.2375L76.517 20.8497C77.0811 20.7792 77.2221 20.4901 77.2221 20.1446C77.2221 19.3267 76.6721 18.671 75.3889 18.671C74.3806 18.5864 73.4922 19.3338 73.4005 20.3421V20.4478L71.2852 19.9754C71.4615 18.2973 72.9845 16.8025 75.3677 16.8025C78.3573 16.8025 79.4925 18.4947 79.4925 20.469V25.2848C79.4925 25.8065 79.5278 26.3283 79.6124 26.843H77.4971C77.4196 26.4341 77.3913 26.0181 77.4054 25.6021C76.7497 26.6104 75.6145 27.1885 74.4158 27.1321C72.7448 27.2731 71.2711 26.0251 71.1301 24.3541V24.213C71.0949 22.4291 72.3711 21.4702 74.0351 21.2375ZM77.2362 22.7958V22.3516L74.7049 22.7323C73.9928 22.7535 73.4217 23.3387 73.4146 24.0509C73.4287 24.763 74.0069 25.3271 74.719 25.313C74.7261 25.313 74.7331 25.313 74.7402 25.313H74.846C76.0517 25.4399 77.1375 24.5656 77.2644 23.3528C77.2644 23.3528 77.2644 23.3458 77.2644 23.3387C77.2715 23.1554 77.2644 22.9721 77.2292 22.7958H77.2362Z" fill="white"/>
<path d="M83.4267 12.1699C84.2587 12.1558 84.9427 12.8256 84.9568 13.6576C84.9568 13.6576 84.9568 13.6576 84.9568 13.6647C84.9568 14.4967 84.2799 15.1736 83.4479 15.1736C82.6159 15.1736 81.939 14.4967 81.939 13.6647C81.939 12.8397 82.6018 12.1699 83.4267 12.1558V12.1699ZM82.2986 26.8358V17.0914H84.6113V26.7935L82.2986 26.8358Z" fill="white"/>
<path d="M89.8784 26.7936H87.5728V17.0915H89.822V18.3818C90.4213 17.3735 91.5213 16.7671 92.6917 16.8095C95.0609 16.8095 96.2172 18.5228 96.2172 20.6593V26.7936H93.9116V21.0541C93.9116 19.8625 93.3686 18.8965 91.9161 18.8965C90.788 18.9036 89.8784 19.8273 89.8855 20.9554V26.7936H89.8784Z" fill="white"/>
<path d="M99.0093 26.7937V12.3674H101.322V26.7937H99.0093Z" fill="white"/>
<path d="M105.447 12.1699C106.279 12.1699 106.949 12.8327 106.956 13.6647C106.956 14.4967 106.293 15.1666 105.461 15.1736C104.629 15.1736 103.959 14.5108 103.952 13.6788C103.952 13.6788 103.952 13.6718 103.952 13.6647C103.959 12.8398 104.622 12.177 105.447 12.1699ZM104.312 26.8359V17.0915H106.603V26.7936L104.312 26.8359Z" fill="white"/>
<path d="M111.905 26.7935H109.593V17.0914H111.842V18.3817C112.441 17.3734 113.541 16.7741 114.712 16.8093C117.081 16.8093 118.237 18.5227 118.237 20.6591V26.7935H115.925V21.054C116.066 20.0387 115.36 19.0938 114.345 18.9387C114.204 18.9246 114.063 18.9246 113.922 18.9387C112.801 18.9528 111.898 19.8624 111.898 20.9835C111.891 21.0681 111.891 21.1457 111.898 21.2303V26.7935H111.905Z" fill="white"/>
<path d="M126.127 21.1882L130.196 26.8289H127.375L124.555 22.831L123.363 24.0861V26.7937H121.072V12.3674H123.363V21.0119L127.086 17.0916H130.153L126.127 21.1882Z" fill="white"/>
<path d="M17.3171 8.46113L27.3154 14.2006V25.7359L17.3453 31.5107L7.35413 25.7853V14.257L17.3171 8.46113ZM17.3171 0L13.6506 2.11528L3.66649 7.91116L0 10.0264V30.03L3.66649 32.1453L13.6647 37.8847L17.3312 40L20.9977 37.8847L30.9607 32.1029L34.6272 29.9877V9.95593L30.9607 7.84065L20.9695 2.11528L17.303 0L17.3171 0Z" fill="white"/>
</g>
<defs>
<clipPath id="clip0_2457_404">
<rect width="130.196" height="40" fill="white"/>
</clipPath>
</defs>
</svg>
