<svg width="177" height="38" viewBox="0 0 177 38" fill="none" xmlns="http://www.w3.org/2000/svg">
<g clip-path="url(#clip0_2457_359)">
<path d="M52.3069 0C47.5759 0 44.8589 2.679 44.8589 7.125C44.8589 11.419 47.5569 14.193 52.2119 14.193C56.4869 14.193 58.9759 11.989 59.3939 8.512H56.1639C55.8599 10.507 54.6439 11.704 52.2309 11.704C49.5709 11.704 48.0129 10.165 48.0129 7.106C48.0129 4.047 49.4189 2.508 52.2309 2.508C54.5489 2.508 55.7459 3.667 56.0689 5.681H59.2799C58.8619 2.299 56.6769 0 52.3069 0Z" fill="white"/>
<path fill-rule="evenodd" clip-rule="evenodd" d="M67.6588 14.193C72.1808 14.193 74.9548 11.438 74.9548 7.049C74.9548 2.66 71.9338 0 67.6588 0C63.1368 0 60.3628 2.565 60.3628 7.144C60.3628 11.723 63.3838 14.193 67.6588 14.193ZM67.6588 2.489C70.1478 2.489 71.8198 3.952 71.8198 7.144C71.8198 10.336 70.2998 11.704 67.6588 11.704C65.1698 11.704 63.4978 10.146 63.4978 7.049C63.4978 3.952 65.0178 2.489 67.6588 2.489Z" fill="white"/>
<path d="M79.743 0.228H76.646V13.965H79.743V4.655C80.56 3.097 81.662 2.394 83.429 2.394C85.652 2.394 86.773 3.42 86.773 5.624V13.965H89.87V5.187C89.87 1.9 88.065 0 84.873 0C82.061 0 80.503 1.463 79.724 3.876V0.228H79.743Z" fill="white"/>
<path d="M94.4111 9.766H91.1812C91.5232 12.521 93.5751 14.212 98.0211 14.212C102.467 14.212 104.329 12.388 104.329 9.937C104.329 7.866 103.341 6.422 100.339 6.08L96.1972 5.586C94.9812 5.453 94.5251 4.959 94.5251 4.161C94.5251 3.192 95.2662 2.451 97.6222 2.451C99.9782 2.451 100.776 3.23 100.966 4.446H104.177C103.778 1.805 102.087 0 97.6981 0C93.3091 0 91.5231 1.881 91.5231 4.332C91.5231 6.479 92.6632 7.771 95.6842 8.132L99.6552 8.588C100.966 8.759 101.327 9.31 101.327 10.051C101.327 11.039 100.434 11.78 98.0781 11.78C95.7221 11.78 94.6581 11.134 94.4111 9.766Z" fill="white"/>
<path fill-rule="evenodd" clip-rule="evenodd" d="M105.488 7.14396C105.488 11.172 107.977 14.193 112.651 14.193C116.546 14.193 118.959 12.35 119.643 9.51896H116.47C116.014 10.887 114.836 11.685 112.727 11.685C110.39 11.685 108.889 10.317 108.623 7.86596H119.738C119.757 3.05896 117.686 -0.019043 112.67 -0.019043C108.167 -0.019043 105.488 2.86896 105.488 7.12496V7.14396ZM116.489 5.77596H108.68C109.079 3.57196 110.504 2.43196 112.651 2.43196C115.102 2.43196 116.28 3.74296 116.489 5.77596Z" fill="white"/>
<path d="M124.355 0.228H121.258V13.965H124.355V4.655C125.172 3.097 126.274 2.394 128.041 2.394C130.264 2.394 131.385 3.42 131.385 5.624V13.965H134.482V5.187C134.482 1.9 132.677 0 129.485 0C126.673 0 125.115 1.463 124.336 3.876V0.228H124.355Z" fill="white"/>
<path d="M139.023 9.766H135.793C136.135 12.521 138.187 14.212 142.633 14.212C147.079 14.212 148.941 12.388 148.941 9.937C148.941 7.866 147.953 6.422 144.951 6.08L140.809 5.586C139.593 5.453 139.137 4.959 139.137 4.161C139.137 3.192 139.878 2.451 142.234 2.451C144.59 2.451 145.407 3.23 145.578 4.446H148.789C148.409 1.805 146.718 0 142.329 0C137.94 0 136.154 1.881 136.154 4.332C136.154 6.479 137.294 7.771 140.315 8.132L144.286 8.588C145.597 8.759 145.958 9.31 145.958 10.051C145.958 11.039 145.065 11.78 142.709 11.78C140.353 11.78 139.289 11.134 139.042 9.766H139.023Z" fill="white"/>
<path d="M157.928 17.347L163.685 0.228027H160.455L156.484 12.255L152.342 0.228027H148.922L153.425 12.464H156.408L155.648 14.801H150.423V17.347H157.928Z" fill="white"/>
<path d="M166.877 9.766H163.647C163.989 12.521 166.041 14.212 170.487 14.212C174.933 14.212 176.795 12.388 176.795 9.937C176.795 7.866 175.807 6.422 172.805 6.08L168.663 5.586C167.447 5.453 166.991 4.959 166.991 4.161C166.991 3.192 167.732 2.451 170.088 2.451C172.444 2.451 173.261 3.23 173.432 4.446H176.643C176.244 1.805 174.572 0 170.183 0C165.794 0 164.008 1.881 164.008 4.332C164.008 6.479 165.148 7.771 168.169 8.132L172.14 8.588C173.451 8.759 173.812 9.31 173.812 10.051C173.812 11.039 172.919 11.78 170.563 11.78C168.207 11.78 167.143 11.134 166.896 9.766H166.877Z" fill="white"/>
<path fill-rule="evenodd" clip-rule="evenodd" d="M37.734 19.114V13.965V0.228027H18.867C8.436 0.228027 0 8.68303 0 19.114C0 29.545 8.455 38 18.867 38C29.279 38 37.734 29.545 37.734 19.114ZM14.573 9.67103L24.016 0.228027V13.965H37.734L28.31 23.408H14.592V9.67103H14.573Z" fill="white"/>
</g>
<defs>
<clipPath id="clip0_2457_359">
<rect width="176.776" height="38" fill="white"/>
</clipPath>
</defs>
</svg>
