<svg width="57" height="38" viewBox="0 0 57 38" fill="none" xmlns="http://www.w3.org/2000/svg">
<g clip-path="url(#clip0_2457_418)">
<path fill-rule="evenodd" clip-rule="evenodd" d="M54.1188 16.2587C53.5412 16.4304 52.9013 16.587 52.6201 16.587C52.9947 15.884 53.4637 15.3216 53.9318 14.8686C54.213 14.5874 54.6812 14.2287 55.1501 14.2287C55.5559 14.2287 55.7277 14.4005 55.7277 14.7911C55.7277 15.5405 54.9464 15.9934 54.1188 16.2587ZM54.9312 18.7895C55.0247 18.6641 54.8529 18.4923 54.7283 18.6641C54.3377 19.1018 53.6506 19.6794 52.9172 19.6794C52.2925 19.6794 51.933 19.2576 51.933 18.5706C51.933 18.0553 52.199 17.3994 52.4019 17.0711C52.8549 16.9776 53.7601 16.774 54.1971 16.6493C55.6806 16.1964 56.5234 15.6811 56.5234 14.728C56.5234 14.0722 56.0712 13.8381 55.4617 13.8381C53.6666 13.8381 50.9807 16.3993 50.9807 18.8358C50.9807 19.6171 51.4808 20.2259 52.3396 20.2259C53.4637 20.2259 54.3536 19.5388 54.9312 18.7895ZM55.6342 2.10824C55.6965 2.10824 55.7741 2.06188 55.7589 1.96764L55.4929 0.15656C55.4617 0.03116 55.4153 0 55.3371 0C55.2899 0 55.2436 0.03116 55.1965 0.10944C55.1182 0.26524 54.9935 0.40584 54.7595 0.40584C54.3536 0.40584 53.9789 0.10944 53.0107 0.10944C51.7461 0.10944 50.0756 0.65588 50.0756 2.48368C50.0756 4.31148 51.5431 4.92024 52.8078 5.37244C54.1347 5.85732 55.1965 6.232 55.1965 7.60608C55.1965 9.15268 54.1036 9.652 53.073 9.652C51.933 9.652 50.5909 9.10556 50.1067 7.30968C50.0596 7.15312 50.0133 7.12196 49.9038 7.12196C49.8103 7.12196 49.7321 7.18428 49.7321 7.35604V9.68392C49.7321 9.82376 49.8103 9.88684 49.8879 9.88684C49.9502 9.88684 50.0133 9.83972 50.0444 9.7774C50.1379 9.6368 50.2473 9.5114 50.5126 9.5114C51.0279 9.5114 51.6366 10.1361 53.1201 10.1361C54.4159 10.1361 56.6177 9.73028 56.6177 7.16908C56.6177 6.15372 56.1959 4.84196 53.7289 4.15492C51.9801 3.67004 51.4177 2.93664 51.4177 2.03072C51.4177 1.2654 51.8707 0.51528 53.1353 0.51528C53.7601 0.51528 54.7747 0.68704 55.4617 2.01476C55.54 2.10824 55.5871 2.10824 55.6342 2.10824ZM48.1239 1.67124C48.3109 1.67124 48.4986 1.62412 48.5297 1.59296C48.5138 1.85896 48.2797 2.2648 47.6398 2.38944C47.5927 2.4054 47.5463 2.45252 47.5463 2.51484C47.5463 2.57716 47.5927 2.63948 47.6869 2.63948C48.6232 2.63948 49.1545 1.79588 49.1545 1.09364C49.1545 0.46892 48.7327 0.09348 48.2174 0.09348C47.8427 0.09348 47.3586 0.2812 47.3586 0.88996C47.3586 1.45236 47.7644 1.67124 48.1239 1.67124ZM49.7632 14.6346C49.7632 15.0252 49.6074 15.5564 49.2791 16.134C48.6392 17.1646 48.1391 17.3675 47.7021 17.3675C47.3274 17.3675 47.1716 17.0711 47.1716 16.6341C47.1716 16.2587 47.3274 15.7594 47.6238 15.3216C48.0616 14.6346 48.6703 14.057 49.2168 14.057C49.5755 14.057 49.7632 14.2439 49.7632 14.6346ZM46.781 22.7096C45.2823 22.7096 44.8293 21.8348 44.8293 21.413C44.8293 20.9912 44.9859 20.7412 45.4069 20.46C45.6881 20.257 46.1099 20.0541 46.4375 19.9295C46.8121 20.0853 47.3586 20.4136 47.5463 20.5854C48.358 21.1478 48.5138 21.4753 48.5138 21.7725C48.5138 22.5218 47.3586 22.7096 46.781 22.7096ZM51.5272 14.4005C51.6837 14.4005 51.8395 14.3222 51.8395 14.041C51.8395 13.791 51.6055 13.7134 51.3866 13.7134C51.1373 13.7134 50.8249 13.7758 50.4966 13.9939C50.4191 14.057 50.2162 14.1504 50.0908 14.0722C49.8415 13.9004 49.6067 13.7758 48.9979 13.7758C48.3891 13.7758 47.4992 14.1352 46.9216 14.9158C46.5157 15.4934 46.4375 15.9 46.4375 16.3058C46.4375 16.7116 46.6092 17.0088 46.7187 17.1806C46.7498 17.2269 46.765 17.2429 46.765 17.29C46.765 17.3835 46.6404 17.4458 46.4375 17.5081C46.0787 17.6335 45.4692 17.977 45.4692 18.6018C45.4692 19.0076 45.7975 19.3982 46.1563 19.6483C46.1563 19.6483 45.4069 19.8512 44.8133 20.1795C44.3452 20.4288 43.8299 20.8354 43.8299 21.397C43.8299 22.0537 44.3923 23.1154 46.6875 23.1154C48.0304 23.1154 48.8733 22.6313 49.2008 22.2566C49.4509 21.9754 49.482 21.6471 49.482 21.4442C49.482 20.71 48.6703 20.023 47.7804 19.5229C47.2028 19.1953 46.3751 18.8047 46.3751 18.2271C46.3751 18.0705 46.4215 17.9147 46.5781 17.8205C46.6875 17.743 46.8593 17.6958 47.0462 17.6958C47.2963 17.6958 47.6238 17.7741 47.8579 17.7741C48.5921 17.7741 49.5755 17.5241 50.2002 16.2275C50.3568 15.868 50.4343 15.4934 50.4343 15.181C50.4343 14.7752 50.372 14.6817 50.372 14.494C50.372 14.3382 50.5285 14.2439 50.8401 14.2439C51.2619 14.2287 51.2619 14.4005 51.5272 14.4005ZM43.1429 16.2587C42.5653 16.4304 41.9405 16.587 41.6441 16.587C42.0348 15.884 42.5029 15.3216 42.9711 14.8686C43.2523 14.5874 43.7205 14.2287 44.1894 14.2287C44.5793 14.2287 44.767 14.4005 44.767 14.7911C44.767 15.5405 43.9865 15.9934 43.1429 16.2587ZM43.9553 18.7895C44.064 18.6641 43.877 18.4923 43.7516 18.6641C43.3617 19.1018 42.6747 19.6794 41.9405 19.6794C41.3006 19.6794 40.9571 19.2576 40.9571 18.5706C40.9571 18.0553 41.2223 17.3994 41.426 17.0711C41.8782 16.9776 42.7993 16.774 43.2211 16.6493C44.7199 16.1964 45.5475 15.6811 45.5475 14.728C45.5475 14.0722 45.0945 13.8381 44.4858 13.8381C42.6907 13.8381 40.0048 16.3993 40.0048 18.8358C40.0048 19.6171 40.5201 20.2259 41.3789 20.2259C42.487 20.2259 43.3769 19.5388 43.9553 18.7895ZM39.9889 11.9951C39.9889 12.0422 39.9737 12.1197 39.9265 12.198C38.8337 14.5874 37.7408 16.9617 36.6791 19.3511C36.6167 19.4765 36.5233 19.7106 36.5233 19.8824C36.5233 20.0853 36.6791 20.257 36.882 20.257C36.9914 20.257 37.132 20.2107 37.2255 20.1795C37.8191 19.9447 38.4438 19.2888 38.8185 18.7264C38.896 18.6018 38.7561 18.4923 38.6619 18.5706C38.5061 18.7112 38.0843 19.2736 37.6473 19.5229C37.569 19.57 37.4907 19.57 37.5379 19.3982L40.9259 11.8704C40.9883 11.7298 41.0042 11.6516 41.0042 11.5733C41.0042 11.4798 40.9419 11.4327 40.8477 11.4327C40.6919 11.4327 40.4889 11.4798 40.2549 11.495C40.0519 11.511 39.6925 11.5421 39.3801 11.5581C39.3026 11.5581 39.2555 11.6356 39.2555 11.6987C39.2555 11.7762 39.3178 11.8233 39.4113 11.8233C39.5678 11.8233 39.7396 11.8233 39.9113 11.8704C39.9737 11.9016 39.9889 11.948 39.9889 11.9951ZM45.9533 6.7944C45.9533 5.966 46.5621 5.88848 47.0933 5.84136C47.2963 5.8102 47.3434 5.48188 47.0462 5.48188H42.9399C42.6587 5.48188 42.6587 5.85732 42.9399 5.87252C43.7516 5.91964 44.4075 6.07544 44.4075 6.85672V8.34024C44.4075 8.66856 44.2517 8.90264 44.064 9.02728C43.3465 9.62084 42.4406 9.66796 41.9094 9.66796C39.3018 9.66796 38.1314 7.41912 38.1314 5.16952C38.1314 3.34248 39.0525 0.48412 42.0659 0.48412C44.767 0.48412 45.7352 2.23364 46.0628 2.90472C46.1722 3.1084 46.4223 3.06128 46.4223 2.90472V0.75012C46.4223 0.54644 46.1251 0.50008 46.0628 0.75012C46.0005 0.9994 45.8439 1.15596 45.641 1.15596C45.4852 1.15596 45.2823 1.03056 45.204 0.9842C44.3923 0.46892 43.6118 0.06232 42.0659 0.06232C39.5678 0.06232 36.4921 1.31176 36.4921 5.1072C36.4921 8.90264 39.3801 10.1209 41.9094 10.1209C44.4387 10.1209 45.7041 8.85552 45.9381 8.69972V6.7944H45.9533ZM36.9603 11.9951C36.9603 12.0422 36.9443 12.1197 36.8979 12.198C35.8051 14.5874 34.7122 16.9617 33.6505 19.3511C33.6033 19.4765 33.4939 19.7106 33.4939 19.8824C33.4939 20.0853 33.6505 20.257 33.8534 20.257C33.9628 20.257 34.1034 20.2107 34.1969 20.1795C34.7897 19.9447 35.4144 19.2888 35.7891 18.7264C35.8674 18.6018 35.7268 18.4923 35.6333 18.5706C35.4927 18.7112 35.0557 19.2736 34.6179 19.5229C34.5404 19.57 34.4621 19.57 34.5093 19.3982L37.8973 11.8704C37.9597 11.7298 37.9749 11.6516 37.9749 11.5733C37.9749 11.4798 37.9125 11.4327 37.8031 11.4327C37.6473 11.4327 37.4444 11.4798 37.2103 11.495C37.0074 11.511 36.6479 11.5421 36.3355 11.5581C36.258 11.5581 36.2109 11.6356 36.2109 11.6987C36.2109 11.7762 36.2732 11.8233 36.3667 11.8233C36.5233 11.8233 36.695 11.8233 36.8668 11.8704C36.9443 11.9016 36.9603 11.948 36.9603 11.9951ZM32.1358 14.0258C32.7445 14.0258 32.8851 14.5411 32.8699 15.0404C32.8699 16.6805 30.9958 19.8041 29.7311 19.8041C29.2159 19.8041 28.9977 19.4294 28.9977 18.9453C28.9977 17.0871 30.8559 14.0258 32.1358 14.0258ZM31.8546 13.6504C30.0283 13.6504 28.3578 15.9463 28.3578 18.3054C28.3578 19.2736 28.7948 20.2259 29.9812 20.2259C31.8546 20.2259 33.4004 17.54 33.4004 15.8528C33.4004 14.7911 33.1504 13.6504 31.8546 13.6504ZM25.3285 0.12464C25.0473 0.12464 25.0473 0.40584 25.2038 0.45296C25.5154 0.51528 26.1713 0.5776 26.1713 1.43716C26.1873 3.45192 26.1873 6.1066 26.109 8.26196C26.0938 9.02728 25.8589 9.68392 25.2038 9.76144C24.9538 9.7774 24.9538 10.0586 25.1255 10.0586H28.0607C28.2172 10.0586 28.2795 9.7926 28.0766 9.76144C27.6237 9.68392 26.8895 9.68392 26.8431 8.26196C26.7808 6.87192 26.7337 1.64008 26.7337 1.64008L34.0875 9.82376H34.6962C34.6962 9.82376 34.6962 2.17132 34.7433 1.59296C34.7897 0.92188 35.0086 0.54644 35.742 0.50008C36.1015 0.46892 36.0391 0.1406 35.7891 0.1406H32.8069C32.4481 0.1406 32.5416 0.46892 32.6974 0.46892C33.0257 0.51528 34.0403 0.62472 34.0875 1.60892C34.1346 3.03012 34.1969 7.46548 34.1969 7.46548L27.6548 0.1406H25.3285V0.12464ZM27.9512 14.4628C28.0295 14.4628 28.0918 14.4157 28.1078 14.3382L28.7629 12.2603C28.81 12.1357 28.7477 12.0574 28.6383 12.0574C28.5919 12.0574 28.5448 12.0734 28.4977 12.1197C28.373 12.2451 28.2324 12.3698 28.1078 12.3698C28.0455 12.3698 27.9824 12.3234 27.9201 12.2763C27.3425 11.5581 26.4054 11.4486 25.9532 11.4486C23.8761 11.4486 22.081 12.8075 21.0345 14.4788C20.3945 15.4622 20.067 16.5558 20.067 17.6335C20.067 19.3511 21.2533 20.3042 22.7992 20.3042C23.4862 20.3042 24.0167 20.2259 24.9538 19.8352C25.1567 19.7577 25.3908 19.6635 25.5314 19.6635C25.7655 19.6635 25.7814 20.0078 25.7966 20.3201C25.7966 20.4448 25.8749 20.4759 25.9532 20.4759C26.0155 20.4759 26.0778 20.4448 26.109 20.3505L26.9837 17.8676C27.0461 17.6647 26.9678 17.5864 26.8895 17.5864C26.7649 17.5864 26.7025 17.6335 26.6091 17.8053C26.2184 18.414 25.9372 18.8047 24.5791 19.4765C24.0015 19.7418 23.3456 19.9135 22.8144 19.9135C21.6592 19.9135 21.2062 19.0236 21.2062 17.9147C21.2062 16.4464 21.8933 14.9158 22.955 13.6352C23.6268 12.7916 24.6726 11.8385 25.8749 11.8385C27.0772 11.8385 27.8889 12.6981 27.7643 14.2751C27.7483 14.4005 27.8425 14.4628 27.9512 14.4628ZM22.7057 8.4968V1.59296C22.7057 0.73416 23.3145 0.50008 23.9703 0.45296C24.2196 0.45296 24.2508 0.12464 23.9232 0.12464H19.8481C19.5669 0.12464 19.5205 0.437 19.8017 0.45296C20.4105 0.51528 21.1439 0.81244 21.1439 1.59296V8.4968C21.1439 9.26212 20.8627 9.76144 19.9575 9.76144C19.5981 9.76144 19.6923 10.0586 19.9575 10.0586H23.9703C24.1733 10.0586 24.2356 9.76144 23.8921 9.76144C23.0333 9.76144 22.7057 9.18384 22.7057 8.4968ZM13.0719 1.60892C13.0719 1.85896 12.9937 2.07708 12.885 2.18652C12.5103 2.88952 11.9791 3.63888 11.2137 4.51364C9.26283 6.70016 6.65527 9.27732 5.76531 9.87088C5.48411 10.0738 5.40583 9.87088 5.40583 9.66796C5.40583 9.5114 5.40583 5.65364 5.46814 3.17072C5.53123 0.68704 7.38867 0.64068 7.87279 0.59356C8.3721 0.54644 8.20035 0.07828 7.91991 0.07828H0.268985C-0.0585746 0.07828 -0.0897346 0.5624 0.190705 0.5624C1.98659 0.5624 2.67363 1.67124 2.68959 2.48368C2.73595 3.67004 2.79827 14.4788 2.68959 17.04C2.59535 19.5229 1.04951 19.6012 0.394385 19.6483C-0.0433746 19.6794 -0.0433746 20.1324 0.440745 20.1324C0.721945 20.1324 2.76711 20.0701 4.23467 20.0701C5.93707 20.0701 6.96687 20.0701 8.34095 20.1324C8.74679 20.1484 8.57503 19.6012 8.29459 19.6012C5.98343 19.6012 5.57759 18.18 5.45295 17.1958C5.32755 16.2275 5.35947 11.761 5.40583 11.2298C5.45295 10.6674 5.93707 10.8239 6.13999 10.9486C7.27923 11.7139 14.2431 20.1324 14.2431 20.1324H19.8641C20.1916 20.1324 20.1133 19.6635 19.8641 19.6483C18.8958 19.57 17.9899 19.4917 16.6941 18.43C15.4454 17.4146 8.24747 8.84032 8.24747 8.84032C8.24747 8.84032 11.4486 5.46668 13.9307 3.18592C16.3354 0.9842 17.6775 0.65588 17.9587 0.5776C18.2559 0.50008 18.2088 0.06232 17.8029 0.09348C17.1471 0.12464 15.8041 0.17176 14.8678 0.17176C13.2437 0.17176 11.8856 0.06232 11.6044 0.06232C11.1674 0.06232 11.0739 0.54644 11.5573 0.62472C11.8856 0.68704 12.1979 0.7182 12.5415 0.8436C12.9473 0.9994 13.0719 1.29656 13.0719 1.60892ZM47.5775 23.506C47.4209 23.506 47.3745 23.7872 47.5927 23.7872C47.8427 23.7872 48.358 23.8496 48.358 24.5989L48.3109 30.628C48.3109 31.2839 48.0768 31.8303 47.468 31.8303C47.2651 31.8303 47.2651 32.0963 47.4209 32.0963H49.935C50.0908 32.0963 50.0908 31.8303 49.9038 31.8303C49.5443 31.8303 48.9044 31.6745 48.8885 30.628L48.8261 24.4902C48.8261 24.4902 55.2588 32.0492 55.3059 32.0963H55.7429L55.79 24.849C55.79 24.1308 56.1024 23.7561 56.8829 23.7561C57.0387 23.7561 57.0387 23.506 56.8829 23.506H54.0724C53.9159 23.506 53.9159 23.7561 54.0724 23.7561C54.3536 23.7561 55.2276 23.8024 55.2436 24.7403L55.3059 30.0192L49.7784 23.506H47.5775ZM39.8179 27.7385C39.8179 25.5368 40.8325 23.8496 42.7059 23.8496C44.3763 23.8496 45.641 25.4585 45.641 27.7385C45.641 30.5497 44.5017 31.784 42.7059 31.784C40.9571 31.784 39.8179 30.0968 39.8179 27.7385ZM42.7059 32.1746C45.2199 32.1746 47.0151 30.4251 47.0151 27.7385C47.0151 25.3802 45.2663 23.4589 42.7059 23.4589C40.1454 23.4589 38.4126 25.4114 38.4126 27.7385C38.4126 30.2685 40.1143 32.1746 42.7059 32.1746ZM30.6682 24.662C30.6682 23.8807 31.1212 23.8496 32.1669 23.8496C33.994 23.8496 35.8514 24.7555 35.8514 27.6602C35.8514 30.5649 34.3063 31.6897 32.2604 31.6897H31.8234C31.277 31.6897 30.6682 31.581 30.6682 30.5034V24.662ZM28.5607 23.4589C28.2795 23.4589 28.3259 23.7872 28.4977 23.7872C28.826 23.7872 29.3724 23.943 29.3724 24.5989V30.7215C29.3724 31.3774 29.2159 31.784 28.4513 31.784C28.2636 31.784 28.2636 32.0963 28.4353 32.0963H32.5264C34.3215 32.0963 37.2878 31.2368 37.2878 27.6921C37.2878 24.1475 34.8528 23.4589 32.4793 23.4589H28.5607ZM18.4429 23.506C18.2871 23.506 18.2399 23.7872 18.4588 23.7872C18.7089 23.7872 19.2234 23.8496 19.2234 24.5989L19.177 30.628C19.177 31.2839 18.9429 31.8303 18.3334 31.8303C18.1305 31.8303 18.1305 32.0963 18.2871 32.0963H20.8004C20.9569 32.0963 20.9569 31.8303 20.7692 31.8303C20.4105 31.8303 19.7698 31.6745 19.7546 30.628L19.6923 24.4902C19.6923 24.4902 26.1249 32.0492 26.1713 32.0963H26.6091L26.6554 24.849C26.6554 24.1308 26.9678 23.7561 27.7483 23.7561C27.9049 23.7561 27.9049 23.506 27.7483 23.506H24.9378C24.782 23.506 24.782 23.7561 24.9378 23.7561C25.219 23.7561 26.0938 23.8024 26.109 24.7403L26.1713 30.0192L20.6446 23.506H18.4429ZM10.6209 27.7385C10.6209 25.5368 11.6355 23.8496 13.5089 23.8496C15.1802 23.8496 16.4448 25.4585 16.4448 27.7385C16.4448 30.5497 15.3048 31.784 13.5089 31.784C11.7602 31.784 10.6209 30.0968 10.6209 27.7385ZM13.5249 32.1746C16.0382 32.1746 17.8341 30.4251 17.8341 27.7385C17.8341 25.3802 16.0853 23.4589 13.5249 23.4589C10.9645 23.4589 9.23091 25.4114 9.23091 27.7385C9.23091 30.2685 10.9333 32.1746 13.5249 32.1746ZM55.6806 36.8129H1.01835V38H55.6806V36.8129ZM55.6806 35.1576H1.01835V35.6729H55.6806V35.1576ZM0.893705 23.5212C0.690785 23.5212 0.705985 23.8024 0.893705 23.7872C1.62787 23.7872 2.06487 24.0996 2.06487 24.849V30.6751C2.06487 31.5499 1.45611 31.784 0.971985 31.784C0.815425 31.784 0.753105 32.0963 1.01835 32.0963H8.52867L8.98163 29.6909C9.02799 29.4568 8.77871 29.4409 8.71562 29.5974C8.04455 31.5339 6.67046 31.7057 5.21887 31.7057C3.76727 31.7057 3.37587 31.4556 3.37587 30.7686V24.6932C3.37587 23.959 4.06291 23.8024 4.40643 23.8024C4.62531 23.8024 4.56299 23.5212 4.39123 23.5212H0.893705Z" fill="white"/>
</g>
<defs>
<clipPath id="clip0_2457_418">
<rect width="57" height="38" fill="white"/>
</clipPath>
</defs>
</svg>
