<svg width="209" height="38" viewBox="0 0 209 38" fill="none" xmlns="http://www.w3.org/2000/svg">
<g clip-path="url(#clip0_2419_394)">
<path d="M39.462 0L26.2644 4.87596H15.2772L2.07964 0L0.0317383 6.0787L1.39701 12.6125L0.519335 13.2626L1.81959 14.2378L0.811892 14.9855L2.11215 16.1557L1.29949 16.7408L3.18486 18.9512L0.356802 27.663L2.98982 36.5697L12.2216 34.0667L14.0095 35.5295L17.6502 38H23.8914L27.5647 35.5295L29.3525 34.0667L38.5844 36.5697L41.2174 27.663L38.3568 18.9512M38.3243 18.9512L40.2097 16.7733L39.397 16.1882L40.6973 15.018L39.6896 14.2703L40.9898 13.2951L40.1447 12.645L41.5099 6.11121L39.462 0.0325064" fill="white"/>
<path d="M184.247 19.1137C183.174 18.3985 181.971 17.8784 180.834 17.2608C180.086 16.8382 179.306 16.4806 178.688 15.9605C177.615 15.0829 177.843 13.3275 178.948 12.5474C180.573 11.4747 183.272 12.0598 183.564 14.2702C183.564 14.3027 183.597 14.3352 183.662 14.3352H186.132C186.197 14.3352 186.23 14.3027 186.23 14.2377C186.1 12.7099 185.514 11.4422 184.442 10.6295C183.402 9.84934 182.231 9.42676 180.964 9.42676C174.462 9.42676 173.877 16.2856 177.388 18.4635C177.778 18.7236 181.224 20.4464 182.426 21.1941C183.629 21.9417 184.019 23.307 183.499 24.4122C183.011 25.3874 181.776 26.07 180.541 26.005C179.176 25.94 178.135 25.1924 177.778 24.0546C177.713 23.8596 177.68 23.437 177.68 23.2745C177.68 23.242 177.648 23.177 177.583 23.177H174.917C174.885 23.177 174.82 23.2095 174.82 23.2745C174.82 25.1924 175.307 26.2651 176.608 27.2403C177.843 28.1505 179.176 28.5405 180.573 28.5405C184.214 28.5405 186.1 26.4926 186.457 24.3472C186.717 22.2343 186.1 20.3489 184.247 19.1137Z" fill="white"/>
<path d="M70.2139 9.78442H66.1831C66.1506 9.78442 66.1181 9.81693 66.0856 9.84944L63.9077 17.0659C63.8752 17.1634 63.7451 17.1634 63.7126 17.0659L61.5347 9.84944C61.5347 9.81693 61.5022 9.78442 61.4372 9.78442H57.3739C57.3414 9.78442 57.2764 9.81693 57.2764 9.88194V28.2806C57.2764 28.3131 57.3089 28.3781 57.3739 28.3781H60.0394C60.0719 28.3781 60.1369 28.3456 60.1369 28.2806V14.3028C60.1369 14.2053 60.2995 14.1728 60.332 14.2703L62.5424 21.5192L62.7049 22.0393C62.7049 22.0719 62.7374 22.1044 62.8025 22.1044H64.8504C64.8829 22.1044 64.9154 22.0719 64.9479 22.0393L65.1104 21.5192L67.3209 14.2703C67.3534 14.1728 67.5159 14.2053 67.5159 14.3028V28.2806C67.5159 28.3131 67.5484 28.3781 67.6134 28.3781H70.2789C70.3114 28.3781 70.3765 28.3456 70.3765 28.2806V9.88194C70.3114 9.81693 70.2789 9.78442 70.2139 9.78442Z" fill="white"/>
<path d="M143.483 9.78442C143.451 9.78442 143.418 9.81693 143.386 9.84944L141.208 17.0659C141.175 17.1634 141.045 17.1634 141.013 17.0659L138.835 9.84944C138.835 9.81693 138.802 9.78442 138.737 9.78442H134.674C134.642 9.78442 134.577 9.81693 134.577 9.88194V28.2806C134.577 28.3131 134.609 28.3781 134.674 28.3781H137.34C137.372 28.3781 137.437 28.3456 137.437 28.2806V14.3028C137.437 14.2053 137.6 14.1728 137.632 14.2703L139.843 21.5192L140.005 22.0393C140.005 22.0719 140.038 22.1044 140.103 22.1044H142.151C142.183 22.1044 142.216 22.0719 142.248 22.0393L142.411 21.5192L144.621 14.2703C144.654 14.1728 144.816 14.2053 144.816 14.3028V28.2806C144.816 28.3131 144.849 28.3781 144.914 28.3781H147.579C147.612 28.3781 147.677 28.3456 147.677 28.2806V9.88194C147.677 9.84944 147.644 9.78442 147.579 9.78442H143.483Z" fill="white"/>
<path d="M109.157 9.78442H96.5765C96.544 9.78442 96.479 9.81693 96.479 9.88194V12.1899C96.479 12.2224 96.5115 12.2874 96.5765 12.2874H101.452V28.2806C101.452 28.3131 101.485 28.3781 101.55 28.3781H104.216C104.248 28.3781 104.313 28.3456 104.313 28.2806V12.2874H109.189C109.222 12.2874 109.287 12.2549 109.287 12.1899V9.88194C109.254 9.81693 109.222 9.78442 109.157 9.78442Z" fill="white"/>
<path d="M118.486 20.2188L120.436 13.0349C120.469 12.9374 120.599 12.9374 120.631 13.0349L122.582 20.2188C122.582 20.2839 122.549 20.3489 122.484 20.3489H118.583C118.518 20.3489 118.453 20.2839 118.486 20.2188ZM124.857 28.3454H127.295C127.36 28.3454 127.393 28.2804 127.393 28.2154L122.387 9.75178C122.387 9.71927 122.354 9.68677 122.289 9.68677H118.811C118.779 9.68677 118.746 9.71927 118.714 9.75178L113.708 28.2154C113.708 28.2804 113.74 28.3454 113.805 28.3454H116.243C116.276 28.3454 116.308 28.3129 116.341 28.2804L117.803 22.9169C117.803 22.8844 117.836 22.8519 117.901 22.8519H123.264C123.297 22.8519 123.329 22.8844 123.362 22.9169L124.825 28.2804C124.76 28.3129 124.825 28.3454 124.857 28.3454Z" fill="white"/>
<path d="M159.802 20.2188L161.752 13.0349C161.785 12.9374 161.915 12.9374 161.947 13.0349L163.897 20.2188C163.897 20.2839 163.865 20.3489 163.8 20.3489H159.899C159.834 20.3489 159.769 20.2839 159.802 20.2188ZM166.173 28.3454H168.611C168.676 28.3454 168.708 28.2804 168.708 28.2154L163.702 9.75178C163.702 9.71927 163.67 9.68677 163.605 9.68677H160.127C160.094 9.68677 160.062 9.71927 160.029 9.75178L154.991 28.2154C154.991 28.2804 155.023 28.3454 155.088 28.3454H157.526C157.559 28.3454 157.591 28.3129 157.624 28.2804L159.087 22.9169C159.087 22.8844 159.119 22.8519 159.184 22.8519H164.548C164.58 22.8519 164.613 22.8844 164.645 22.9169L166.108 28.2804C166.075 28.3129 166.108 28.3454 166.173 28.3454Z" fill="white"/>
<path d="M81.136 25.6473V19.9262C81.136 19.8937 81.1685 19.8287 81.2335 19.8287H88.3199C88.3524 19.8287 88.4174 19.7962 88.4174 19.7312V17.4232C88.4174 17.3907 88.3849 17.3257 88.3199 17.3257H81.2335C81.201 17.3257 81.136 17.2932 81.136 17.2282V12.3522C81.136 12.3197 81.1685 12.2547 81.2335 12.2547H89.2951C89.3276 12.2547 89.3926 12.2222 89.3926 12.1572V9.84923C89.3926 9.81672 89.3601 9.75171 89.2951 9.75171H78.3729C78.3404 9.75171 78.2754 9.78422 78.2754 9.84923V28.2154C78.2754 28.2479 78.3079 28.3129 78.3729 28.3129H89.6201C89.6526 28.3129 89.7177 28.2804 89.7177 28.2154V25.7774C89.7177 25.7449 89.6851 25.6799 89.6201 25.6799H81.201C81.1685 25.7449 81.136 25.7124 81.136 25.6473Z" fill="white"/>
<path d="M208.561 28.2156L199.362 18.6912C199.329 18.6587 199.329 18.5937 199.362 18.5612L207.651 9.94696C207.716 9.88194 207.651 9.78442 207.586 9.78442H204.205C204.184 9.78442 204.162 9.79526 204.14 9.81693L197.119 17.1309C197.054 17.1959 196.956 17.1309 196.956 17.0659V9.88194C196.956 9.84944 196.924 9.78442 196.859 9.78442H194.193C194.161 9.78442 194.096 9.81693 194.096 9.88194V28.2806C194.096 28.3131 194.128 28.3781 194.193 28.3781H196.859C196.891 28.3781 196.956 28.3456 196.956 28.2806V20.1865C196.956 20.1215 197.054 20.0565 197.119 20.1215L205.083 28.3456C205.083 28.3456 205.115 28.3781 205.148 28.3781H208.529C208.561 28.3781 208.626 28.2481 208.561 28.2156Z" fill="white"/>
<path d="M39.4629 0L23.2422 11.8648L26.2653 4.84346L39.4629 0Z" fill="white"/>
<path d="M2.04785 0L18.1385 11.9624L15.2455 4.84346L2.04785 0Z" fill="white"/>
<path d="M33.6116 27.5005L29.3208 34.0018L38.5526 36.5373L41.1856 27.6305L33.6116 27.5005Z" fill="white"/>
<path d="M0.325195 27.6305L2.95821 36.5373L12.19 34.0018L7.89919 27.5005L0.325195 27.6305Z" fill="white"/>
<path d="M11.7023 16.4806L9.13428 20.3164L18.2686 20.739L17.976 10.9871L11.7023 16.4806Z" fill="white"/>
<path d="M29.8085 16.4808L23.4372 10.8896L23.2422 20.7391L32.3765 20.3165L29.8085 16.4808Z" fill="white"/>
<path d="M12.1899 34.0018L17.716 31.3688L12.9701 27.6956L12.1899 34.0018Z" fill="white"/>
<path d="M23.7949 31.3688L29.321 34.0018L28.5409 27.6956L23.7949 31.3688Z" fill="white"/>
<path d="M29.321 34.0017L23.7949 31.3687L24.25 34.9119L24.185 36.4071L29.321 34.0017Z" fill="white"/>
<path d="M12.1899 34.0017L17.326 36.4071L17.2935 34.9119L17.716 31.3687L12.1899 34.0017Z" fill="white"/>
<path d="M17.4232 25.3551L12.8398 24.0224L16.058 22.5596L17.4232 25.3551Z" fill="white"/>
<path d="M24.0874 25.3551L25.4527 22.5596L28.7033 24.0224L24.0874 25.3551Z" fill="white"/>
<path d="M12.1898 34.0018L13.0024 27.5005L7.89893 27.6305L12.1898 34.0018Z" fill="white"/>
<path d="M28.5083 27.5005L29.321 34.0018L33.6118 27.6305L28.5083 27.5005Z" fill="white"/>
<path d="M32.3765 20.3164L23.2422 20.739L24.0874 25.3549L25.4526 22.5593L28.7033 24.0221L32.3765 20.3164Z" fill="white"/>
<path d="M12.84 24.0221L16.0581 22.5593L17.4234 25.3549L18.2686 20.739L9.13428 20.3164L12.84 24.0221Z" fill="white"/>
<path d="M9.13428 20.3164L12.97 27.6954L12.84 24.0221L9.13428 20.3164Z" fill="white"/>
<path d="M28.7031 24.0221L28.5405 27.6954L32.3763 20.3164L28.7031 24.0221Z" fill="white"/>
<path d="M18.2685 20.739L17.4233 25.3549L18.4961 30.8485L18.7236 23.6321L18.2685 20.739Z" fill="white"/>
<path d="M23.2422 20.739L22.7871 23.5996L23.0147 30.8485L24.0874 25.3549L23.2422 20.739Z" fill="white"/>
<path d="M24.0874 25.355L23.0146 30.8486L23.7948 31.3687L28.5407 27.6954L28.7033 24.0222L24.0874 25.355Z" fill="white"/>
<path d="M12.8398 24.0222L12.9699 27.6954L17.7158 31.3687L18.496 30.8486L17.4232 25.355L12.8398 24.0222Z" fill="white"/>
<path d="M24.1848 36.4072L24.2498 34.9119L23.8272 34.5868H17.6835L17.2934 34.9119L17.326 36.4072L12.1899 34.0017L13.9778 35.4645L17.6185 37.9675H23.8597L27.533 35.4645L29.3208 34.0017L24.1848 36.4072Z" fill="white"/>
<path d="M23.7947 31.3687L23.0146 30.8486H18.4962L17.716 31.3687L17.2935 34.9119L17.6835 34.5869H23.8272L24.2498 34.9119L23.7947 31.3687Z" fill="white"/>
<path d="M40.1457 12.6125L41.5109 6.0787L39.463 0L23.7949 11.4423L29.8086 16.4807L38.3253 18.9512L40.2107 16.7733L39.398 16.1882L40.6983 15.018L39.6906 14.2703L40.9908 13.2626L40.1457 12.6125Z" fill="white"/>
<path d="M0 6.0787L1.36527 12.6125L0.487596 13.2626L1.82036 14.2703L0.812661 15.018L2.11292 16.1882L1.30026 16.7733L3.18563 18.9512L11.7023 16.4807L17.716 11.4423L2.0479 0L0 6.0787Z" fill="white"/>
<path d="M38.325 18.9512L29.8083 16.4807L32.3763 20.3165L28.5405 27.6954L33.6115 27.6304H41.1855L38.325 18.9512Z" fill="white"/>
<path d="M11.7024 16.4807L3.18576 18.9512L0.325195 27.6304H7.89919L12.9702 27.6954L9.13444 20.3165L11.7024 16.4807Z" fill="white"/>
<path d="M23.2422 20.7391L23.7948 11.4423L26.2653 4.84351H15.2456L17.7161 11.4423L18.2687 20.7391L18.4637 23.6322L18.4962 30.8486H23.0146L23.0471 23.6322L23.2422 20.7391Z" fill="white"/>
</g>
<defs>
<clipPath id="clip0_2419_394">
<rect width="208.59" height="38" fill="white"/>
</clipPath>
</defs>
</svg>
