<svg width="107" height="16" viewBox="0 0 107 16" fill="none" xmlns="http://www.w3.org/2000/svg">
<g clip-path="url(#clip0_2293_481)">
<path d="M47.325 4.71308C47.3667 4.77227 47.3957 4.81289 47.4246 4.85119L49.2452 7.20953C50.8618 9.30326 53.4262 12.7051 54.7531 14.4263C55.2085 15.0159 56.1139 15.3652 56.7895 15.3838C57.1742 15.3942 57.4628 15.4 57.647 15.4H58.2068V0.452634H55.553L55.517 11.3439L54.4822 10.0022C54.0684 9.46601 53.6675 8.94722 53.2677 8.42843L50.7494 5.16133C49.7204 3.82664 48.9314 2.72742 47.9023 1.38924C47.4353 0.782246 46.5114 0.431744 45.8173 0.428262C45.6597 0.428262 45.5218 0.427101 45.385 0.427101H44.0488V15.3768H46.7003L46.6389 3.75674L47.3238 4.71308H47.325Z" fill="#FAFAFA"/>
<path d="M90.8718 2.77037V0.447998H78.6572V15.3896H90.8636V13.0185H81.121V8.79971H90.8718V6.66536H81.1268V2.77037H90.8718Z" fill="#FAFAFA"/>
<path d="M104.242 14.9056C105.139 14.511 105.786 14.012 106.275 13.3342C106.786 12.6274 107.048 11.6826 106.993 10.7426C106.942 9.85469 106.622 9.06316 106.094 8.51303C105.258 7.64258 104.181 7.35707 103.057 7.11915C102.813 7.06808 102.387 7.00077 101.893 6.92417C99.6878 6.58063 97.6574 6.22432 97.049 5.65215C96.7408 5.36199 96.5762 4.91516 96.5982 4.42771C96.6202 3.93329 96.8335 3.48762 97.1707 3.23577C97.4581 3.02106 97.7385 2.87134 98.0062 2.79242C99.0782 2.47441 100.251 2.42567 101.696 2.63922C103.321 2.87946 104.629 3.29728 105.804 3.95302C105.804 3.11158 105.807 2.24461 105.8 1.38576C101.17 -0.596548 97.9947 0.298278 96.8416 0.776447C95.8415 1.19078 95.0928 1.7943 94.5528 2.62065C94.0336 3.41682 93.8181 4.53564 93.9896 5.54189C94.1008 6.19183 94.4288 7.09129 95.3617 7.69017C96.8184 8.62445 98.5266 8.85425 100.179 9.07709C100.733 9.15137 101.302 9.22797 101.855 9.3301C101.942 9.34635 102.043 9.36028 102.152 9.37536C103.011 9.49491 104.433 9.69337 104.494 11.1499C104.521 11.8103 104.263 12.3384 103.746 12.6761C103.243 13.0057 102.723 13.1206 102.097 13.1938C100.121 13.4236 98.1581 13.2506 96.2633 12.6808C95.4266 12.4289 94.7486 12.126 94.1402 11.7291C94.1402 12.4893 94.1379 13.4108 94.1449 14.287C97.603 15.9316 101.374 16.1626 104.239 14.9045L104.242 14.9056Z" fill="#FAFAFA"/>
<path d="M32.6118 12.2479C33.1449 11.1639 33.3929 9.91969 33.3941 8.33198C33.3941 6.49126 33.3941 4.65054 33.3941 2.80982V0.452635H30.7901V2.21907C30.7901 4.14568 30.7901 6.18718 30.7877 8.11379C30.7877 8.47009 30.7727 8.82756 30.7437 9.17458C30.578 11.1546 29.6381 12.4962 28.0261 13.0568C27.208 13.3411 26.34 13.3911 25.3723 13.21C24.5901 13.0626 23.9515 12.7469 23.4219 12.2421C22.5435 11.4041 22.0904 10.2307 22.0765 8.75444C22.0579 6.75008 22.0603 4.58439 22.0614 2.67403V2.52315C22.0614 1.83027 22.0626 1.13855 22.0614 0.445671H19.4261C19.4285 1.21747 19.4273 1.99624 19.4261 2.775C19.4238 4.9082 19.4227 7.10754 19.4737 9.26162C19.52 11.1824 20.1864 12.7574 21.4565 13.9423C22.3291 14.7571 23.3895 15.262 24.6979 15.4836C26.6795 15.8202 28.3923 15.6322 29.9348 14.9103C31.1122 14.359 32.0127 13.4619 32.6107 12.2467L32.6118 12.2479Z" fill="#FAFAFA"/>
<path d="M75.5781 0.691725C75.5596 0.550131 75.4611 0.447998 75.3441 0.447998H61.3947C61.2776 0.447998 61.1791 0.551292 61.1606 0.691725L60.9126 2.57307H67.1056V15.3815H69.6065V2.56494H75.8261L75.5781 0.691725Z" fill="#FAFAFA"/>
<path d="M39.6557 0.445671H36.937V15.3768H39.6557V0.445671Z" fill="#FAFAFA"/>
<path d="M18.498 15.4198L17.739 13.5826C17.5953 13.3342 17.3496 13.1845 17.0865 13.1845H14.0445L14.5799 12.4382C15.2845 11.3948 15.7109 10.1437 15.8465 8.71847C16.0377 6.71642 15.5023 4.60761 14.4153 3.07793C13.7548 2.15293 11.8136 7.62939e-06 8.01022 7.62939e-06C7.70544 7.62939e-06 7.39022 0.0139349 7.07385 0.0417894C5.18952 0.206595 3.64474 0.818234 2.48123 1.8593C1.13578 3.06168 0.221425 4.98016 0.0348464 6.98917C-0.151732 8.99817 0.388303 11.114 1.47996 12.6471C3.75252 15.8411 7.18742 15.6647 10.5088 15.4941L18.4969 15.4198H18.498ZM7.9685 13.3284C6.83396 13.3284 5.80372 13.1021 4.98903 12.6726C3.11513 11.685 2.13241 9.42411 2.48355 6.91141C2.80224 4.63778 4.05035 3.09534 5.99957 2.57075C7.74484 2.09954 9.29425 2.2214 10.7347 2.9433C12.7268 3.94142 13.7281 6.37405 13.2831 9.13976C12.8497 11.8405 10.9619 13.3272 7.9685 13.3272V13.3284Z" fill="#FAFAFA"/>
</g>
<defs>
<clipPath id="clip0_2293_481">
<rect width="107" height="15.7088" fill="white"/>
</clipPath>
</defs>
</svg>
