<svg width="133" height="38" viewBox="0 0 133 38" fill="none" xmlns="http://www.w3.org/2000/svg">
<g clip-path="url(#clip0_2457_375)">
<path d="M104.181 37.9248V1.42773H116.53V30.1845H132.562V37.9999" fill="white"/>
<path d="M68.0843 37.975C62.6235 34.0422 60.0435 27.4542 60.0435 21.1417C60.0435 10.6961 67.0573 0 80.3335 0C86.2452 0 91.8813 2.0791 96.0145 6.26236C97.6677 7.99077 98.4693 9.26829 99.2709 10.8214L88.8754 15.9314C87.8984 13.6018 85.9947 9.46869 80.7593 9.46869C78.054 9.46869 76.3256 10.7713 75.4739 11.5478C72.5181 14.3784 72.5181 18.7871 72.5181 20.3401C72.5181 26.1266 74.6723 31.5873 80.7593 31.5873C86.8464 31.5873 88.2491 26.4773 88.675 25.1997L99.1957 30.3098C98.2188 32.1635 97.2168 33.942 95.3882 35.8457C94.5866 36.6473 93.735 37.3237 92.8081 37.9249" fill="white"/>
<path d="M25.5003 37.9751C24.9492 37.5993 24.5234 37.2486 24.0224 36.7977C20.1397 33.0403 20.0896 28.6817 19.9644 24.6237V1.47803H32.3889V25.801C32.3889 27.4543 32.439 29.1827 33.7916 30.4602C34.7686 31.5123 36.3216 31.863 37.7244 31.863C39.7033 31.863 40.9307 31.1366 41.6572 30.5103C43.0599 29.1577 43.1351 27.4292 43.1351 25.776V1.47803H55.6097V22.1939C55.6097 26.6778 55.6097 32.4642 51.0006 36.8228C50.5748 37.2486 50.0738 37.6244 49.5227 38.0001" fill="white"/>
<path d="M13.7019 10.2202L7.01369 8.81738C7.01369 8.81738 0.375588 10.2202 0.325489 10.2202C0.27539 10.2202 0.325489 10.2703 0.325489 10.2703L0.375588 10.646C0.375588 10.646 0.500835 10.646 0.550934 10.6961L0.676181 11.2472C0.676181 11.2472 0.676181 11.2973 0.72628 11.2973H13.3512C13.4263 11.2973 13.4013 11.2973 13.4013 11.2973L13.5265 10.7462C13.5766 10.6209 13.7019 10.6209 13.7019 10.6209L13.752 10.2452V10.1951H13.7019V10.2202Z" fill="white"/>
<path d="M13.0257 11.4475V11.2471H11.9736V11.4224H12.0237V11.4725C12.0237 11.4725 12.0237 11.6479 12.149 11.723V11.7731H12.0989V11.8733V15.6307L12.0488 15.6808V15.7309H11.9987V15.8562H12.9756V15.7309H12.9255L12.8754 15.6808V11.9234V11.8232C12.8754 11.8232 12.8253 11.7731 12.8754 11.7731C13.0007 11.723 13.0007 11.5978 13.0007 11.5226V11.4976H13.0508V11.4475H13.0257Z" fill="white"/>
<path d="M10.8211 11.4475V11.2471H9.76904V11.4224H9.84419V11.4725C9.84419 11.4725 9.84419 11.6479 9.96944 11.723V11.7731H9.91934V11.8733V15.6307L9.86924 15.6808V15.7309H9.81914V15.8562H10.7961V15.7309H10.746L10.6959 15.6808V11.9234V11.8232C10.6959 11.8232 10.6458 11.7731 10.6959 11.7731C10.8211 11.723 10.8211 11.5978 10.8211 11.5226V11.4976H10.8712V11.4475H10.8211Z" fill="white"/>
<path d="M8.66731 11.4475V11.2471H7.61523V11.4224H7.66533V11.4725C7.66533 11.4725 7.66533 11.6479 7.79058 11.723V11.7731H7.74048V11.8733V15.6307L7.69038 15.6808V15.7309H7.64028V15.8562H8.61721V15.7309H8.56711L8.51701 15.6808V11.9234V11.8232H8.46692C8.46692 11.8232 8.41682 11.7731 8.46692 11.7731C8.51701 11.723 8.59216 11.5978 8.59216 11.5226V11.4976H8.64226L8.66731 11.4475Z" fill="white"/>
<path d="M6.46272 11.4475V11.2471H5.41064V11.4224H5.46074V11.4725C5.46074 11.4725 5.46074 11.6479 5.58599 11.723V11.7731H5.53589V11.8733V15.6307L5.48579 15.6808V15.7309H5.43569V15.8562H6.41262V15.7309H6.33747L6.28737 15.6808V11.9234V11.8232C6.28737 11.8232 6.23728 11.7731 6.28737 11.7731C6.41262 11.723 6.41262 11.5978 6.41262 11.5226V11.4976H6.46272V11.4475Z" fill="white"/>
<path d="M4.25862 11.4475V11.2471H3.20654V11.4224H3.25664V11.4725C3.25664 11.4725 3.25664 11.6479 3.38189 11.723V11.7731H3.33179V11.8733V15.6307L3.28169 15.6808V15.7309H3.23159V15.8562H4.20852V15.7309H4.15842L4.10832 15.6808V11.9234V11.8232H4.05822C4.05822 11.8232 4.00813 11.7731 4.05822 11.7731C4.18347 11.723 4.18347 11.5978 4.18347 11.5226V11.4976H4.23357L4.25862 11.4475Z" fill="white"/>
<path d="M2.10432 11.4475V11.2471H1.05225V11.4224H1.10235V11.4725C1.10235 11.4725 1.10235 11.6479 1.22759 11.723V11.7731H1.17749V11.8733V15.6307L1.12739 15.6808V15.7309H1.0773V15.8562H2.05422V15.7309H2.00412L1.95403 15.6808V11.9234V11.8232H1.90393C1.90393 11.8232 1.85383 11.7731 1.90393 11.7731C1.95403 11.723 2.02917 11.5978 2.02917 11.5226V11.4976H2.07927L2.10432 11.4475Z" fill="white"/>
<path d="M10.1453 7.43959H10.02V7.31434H9.89477V7.18909H9.84467C9.84467 7.18909 9.79457 7.18909 9.79457 7.13899C9.79457 7.01375 9.84467 5.96167 9.29359 5.28534C8.86774 4.6591 8.31666 4.35851 7.99101 4.18316C7.99101 4.05791 7.81567 4.00781 7.69042 3.93267C7.64032 3.93267 7.64032 3.88257 7.64032 3.88257V3.83247C7.64032 3.78237 7.69042 3.78237 7.76557 3.78237H7.81567V3.65712C7.81567 3.65712 7.81567 3.60702 7.76557 3.60702H7.64032C7.64032 3.60702 7.59022 3.60702 7.59022 3.55692V3.50683C7.59022 3.47343 7.57352 3.45673 7.54012 3.45673V2.73029H7.59022V2.68019H7.54012V2.58V2.45475H7.43993L7.18943 2.20425C7.18943 2.20425 7.18943 2.15416 7.13933 2.15416C7.08924 2.15416 7.13933 2.10406 7.13933 2.10406V2.05396L7.08923 1.92871C7.08923 1.92871 7.03914 1.97881 7.03914 2.05396V2.10406V2.15416C7.00574 2.15416 6.98904 2.17086 6.98904 2.20425C6.98904 2.20425 6.86379 2.3796 6.73854 2.45475H6.63835V2.50485V2.60505H6.58825V2.65514H6.63835V3.38158L6.58825 3.43168V3.48178C6.58825 3.48178 6.58825 3.53188 6.53815 3.53188H6.4129C6.4129 3.53188 6.3628 3.53188 6.3628 3.58197V3.70722H6.4129C6.463 3.70722 6.53815 3.70722 6.53815 3.75732V3.80742C6.53815 3.85752 6.48805 3.85752 6.48805 3.85752C6.43795 3.85752 6.23755 3.90762 6.18746 4.10801C5.88686 4.23326 5.26063 4.609 4.88488 5.21019C4.3338 5.93662 4.3839 6.9386 4.3839 7.06385C4.3839 7.06385 4.3839 7.11395 4.3338 7.11395H4.2837V7.23919H4.15845V7.36444H4.0332V7.48969C4.0833 7.48969 4.15845 7.53979 4.15845 7.61493C4.15845 7.74018 4.20855 7.74018 4.2837 7.74018V8.16602C4.2837 8.29127 4.2336 8.29127 4.15845 8.29127V8.71711L7.23953 8.04077L10.3206 8.71711V8.29127C10.2705 8.29127 10.1954 8.24117 10.1954 8.16602V7.74018C10.1954 7.74018 10.3206 7.74018 10.3206 7.61493C10.3206 7.56484 10.3707 7.48969 10.4459 7.48969V7.36444L10.1453 7.43959Z" fill="white"/>
<path d="M13.5267 16.3572H13.0257V15.9814H1.05208V16.3572H0.551088V17.284H0V18.1357H14.0778V17.284H13.5267V16.3572Z" fill="white"/>
</g>
<defs>
<clipPath id="clip0_2457_375">
<rect width="132.562" height="38" fill="white"/>
</clipPath>
</defs>
</svg>
